<svg width="25" height="19" viewBox="0 0 25 19" fill="none" xmlns="http://www.w3.org/2000/svg">
<g clip-path="url(#clip0_4144_16)">
<path d="M24.4414 1.59168C24.0672 1.59168 23.6931 1.59168 23.3182 1.59168C22.8825 1.59168 22.8825 1.59168 22.8749 1.12184C22.8673 0.684929 22.7649 0.546786 22.3626 0.442377C20.5897 -0.014612 18.8054 -0.13428 16.9991 0.196615C15.3446 0.499401 13.8661 1.17886 12.6434 2.41972C12.519 2.54581 12.4529 2.53617 12.3361 2.41329C11.4525 1.49322 10.362 0.826523 9.16743 0.476108C7.07574 -0.161589 4.96585 -0.124645 2.85595 0.384548C2.1357 0.558028 2.10914 0.598185 2.11066 1.35876C2.11066 1.53385 2.07499 1.59971 1.89815 1.59007C1.47541 1.57642 1.05191 1.5965 0.629175 1.58204C0.337736 1.5716 0.12371 1.67119 0 1.95791V18.6481C0.258804 19.0095 0.42198 19.0769 0.730875 18.9219C2.44763 18.0594 4.2585 17.5807 6.14754 17.3911C8.00364 17.1997 9.8767 17.3225 11.6963 17.755C12.2017 17.8754 12.6875 17.9373 13.2005 17.7767C13.8312 17.5799 14.4907 17.4923 15.1396 17.4168C16.5873 17.2431 18.0495 17.2549 19.4945 17.4522C21.1521 17.6859 22.7505 18.126 24.2539 18.9147C24.6486 19.1219 25.0008 18.8914 25.0008 18.4248C25.0008 13.0084 25.0008 7.59224 25.0008 2.17637C25.0008 1.78604 24.8209 1.59569 24.4414 1.59168ZM7.16378 16.2724C5.14898 16.331 3.15887 16.7574 1.28112 17.5325C1.22799 17.5542 1.17411 17.5735 1.12326 17.5992C1.00486 17.657 0.960079 17.6176 0.975259 17.4835C0.977916 17.4407 0.977916 17.3978 0.975259 17.355C0.975259 12.541 0.973741 7.72743 0.970705 2.91445C0.970705 2.68957 1.00941 2.5932 1.24165 2.6197C1.46893 2.64023 1.69744 2.64023 1.92471 2.6197C2.09396 2.60765 2.12432 2.67673 2.12052 2.83736C2.11141 3.27668 2.12052 3.71599 2.12052 4.15451V15.2893C2.12052 15.7881 2.3429 16.0483 2.71858 15.9961C2.99256 15.9583 3.26503 15.9093 3.53901 15.8788C5.5973 15.6491 7.63737 15.6523 9.62887 16.3607C8.81017 16.2698 7.98642 16.2403 7.16378 16.2724ZM11.9968 16.3294C11.3689 15.9123 10.6926 15.5829 9.98482 15.3495C8.56254 14.8749 7.10079 14.707 5.61324 14.7159C4.84071 14.7175 4.06907 14.7712 3.30298 14.8765C3.12235 14.9022 3.07529 14.8548 3.07529 14.654C3.08136 10.317 3.08136 5.97765 3.07529 1.63585C3.07529 1.44952 3.12614 1.3949 3.29235 1.36358C5.30965 0.944341 7.31026 0.921853 9.27444 1.65512C10.2682 2.0212 11.1629 2.63753 11.8815 3.45096C11.9193 3.4885 11.9493 3.53393 11.9697 3.58439C11.9901 3.63485 12.0003 3.68923 11.9999 3.7441C11.9945 7.92447 11.9945 12.1089 11.9945 16.3294H11.9968ZM13.1011 16.2619C13.0707 16.2812 13.0389 16.3205 12.9888 16.2868V9.36933C12.9888 7.50925 12.9888 5.64943 12.9888 3.78988C12.986 3.72308 12.9968 3.65642 13.0204 3.59437C13.0439 3.53232 13.0797 3.47631 13.1254 3.43008C14.2441 2.1836 15.6466 1.52984 17.2184 1.23669C18.7265 0.954785 20.2269 1.04715 21.7213 1.3668C21.864 1.39732 21.9012 1.44711 21.9012 1.59489C21.8971 5.96025 21.8971 10.324 21.9012 14.6862C21.9012 14.8926 21.8139 14.8853 21.6811 14.8669C20.6646 14.7253 19.6385 14.6767 18.6141 14.7215C16.6689 14.805 14.7981 15.1849 13.1011 16.2619ZM24.0346 2.78274C24.0323 2.81724 24.0323 2.85185 24.0346 2.88635L24.0263 17.3743V17.6538C23.3555 17.3735 22.6716 17.1301 21.9771 16.9245C20.4176 16.4706 18.8062 16.2476 17.1888 16.2619C16.6849 16.2683 16.1817 16.2804 15.6793 16.3286C15.6223 16.3334 15.5464 16.3993 15.5313 16.2756C17.3679 15.6981 19.241 15.6459 21.1308 15.8459C21.5187 15.8869 21.905 15.9391 22.292 15.9864C22.6313 16.0282 22.8772 15.809 22.8992 15.4475C22.8992 15.3793 22.8992 15.3102 22.8992 15.2411C22.8992 11.1263 22.8974 7.01157 22.8939 2.89679C22.8939 2.66869 22.9432 2.60043 23.1573 2.6197C23.4009 2.63577 23.6452 2.63577 23.8889 2.6197C24.0073 2.6181 24.0513 2.66066 24.0346 2.78274Z" fill="white"/>
</g>
<defs>
<clipPath id="clip0_4144_16">
<rect width="25" height="19" fill="white"/>
</clipPath>
</defs>
</svg>
