<svg width="17" height="17" viewBox="0 0 17 17" fill="none" xmlns="http://www.w3.org/2000/svg">
<g clip-path="url(#clip0_2109_24786)">
<path d="M-0.00155295 8.48171C-0.00155285 6.18596 -0.00155275 3.89071 -0.00155265 1.59496C-0.00106337 0.604979 0.603527 0.000319357 1.59437 0.000319401C3.88349 0.000319501 6.17212 -0.000659605 8.46124 0.000809304C8.97184 0.000809326 9.36348 0.37046 9.37473 0.853208C9.38648 1.34379 9.0066 1.74624 8.51313 1.75702C8.20178 1.76338 7.89043 1.75897 7.57908 1.75897C5.69922 1.75897 3.81887 1.76093 1.93901 1.75506C1.78529 1.75457 1.75249 1.79227 1.75249 1.94306C1.7569 6.31424 1.7569 10.6854 1.75249 15.0571C1.75249 15.2079 1.78578 15.2456 1.93901 15.2451C4.11211 15.2392 6.2852 15.2402 8.45781 15.2417C8.96988 15.2417 9.36152 15.6089 9.37424 16.0916C9.38746 16.5974 8.99876 16.9964 8.47886 16.9984C7.56341 17.0023 6.64747 16.9993 5.73202 16.9993C4.3466 16.9993 2.96069 16.9993 1.57528 16.9993C0.609891 16.9993 -0.00155234 16.3878 -0.00204249 15.4228C-0.00204239 13.109 -0.00204229 10.7951 -0.00204219 8.48122L-0.00155295 8.48171Z" fill="white"/>
<path d="M13.9988 7.62046C13.3835 7.0065 12.8009 6.42534 12.2184 5.84516C11.9481 5.57588 11.8492 5.26057 11.9741 4.89386C12.1728 4.31025 12.8939 4.11441 13.3649 4.51197C13.4114 4.55114 13.4545 4.59471 13.4975 4.6378C14.5466 5.68653 15.5952 6.73526 16.6439 7.78448C17.1182 8.25939 17.1187 8.74214 16.6453 9.21559C15.5928 10.2692 14.5383 11.3209 13.4873 12.3765C13.2782 12.5865 13.0408 12.7158 12.7397 12.6913C12.3789 12.6619 12.117 12.4763 11.9863 12.141C11.8502 11.7919 11.9163 11.4653 12.1811 11.196C12.7294 10.6398 13.2846 10.0895 13.8373 9.53726C13.8799 9.49466 13.9254 9.45549 14.0086 9.37911C13.897 9.37911 13.8343 9.37911 13.7712 9.37911C10.6645 9.37911 7.55836 9.37911 4.45169 9.37911C3.90193 9.37911 3.50442 8.99086 3.51715 8.47384C3.52841 8.02634 3.89263 7.64886 4.33959 7.62291C4.41253 7.6185 4.48596 7.62095 4.55939 7.62095C7.62298 7.62095 10.6871 7.62095 13.7506 7.62095C13.8172 7.62095 13.8838 7.62095 13.9993 7.62095L13.9988 7.62046Z" fill="white"/>
</g>
<defs>
<clipPath id="clip0_2109_24786">
<rect width="17" height="17" fill="white" transform="translate(17) rotate(90)"/>
</clipPath>
</defs>
</svg>
