<svg width="23" height="20" viewBox="0 0 23 20" fill="none" xmlns="http://www.w3.org/2000/svg">
<g clip-path="url(#clip0_2109_24808)">
<path d="M22.9574 14.8602C22.6721 12.8263 21.1818 11.3141 19.123 10.9759C18.9663 10.9503 18.9106 10.8963 18.9113 10.7282C18.9182 8.19941 18.9182 5.67131 18.9154 3.14254C18.9134 1.33878 17.6135 0.0176843 15.7843 0.0116088C11.5698 -0.0025675 7.35596 -0.0025675 3.14146 0.0116088C1.30951 0.0170092 0.00206223 1.33945 0.00137482 3.13646C-0.000687408 7.36301 0.000687408 11.5896 0 15.8154C0 16.0659 0.0164978 16.315 0.0756149 16.5587C0.43513 18.0465 1.62435 18.9551 3.22051 18.9558C7.21023 18.9572 11.1999 18.9565 15.1897 18.9545C15.3278 18.9545 15.444 18.974 15.5622 19.0611C16.6188 19.8368 17.7956 20.1378 19.1086 19.9421C20.8532 19.6822 22.3841 18.3348 22.8316 16.6572C22.8928 16.427 22.8948 16.1827 23.0007 15.9639V14.9493C22.9533 14.9345 22.9629 14.894 22.9581 14.8595L22.9574 14.8602ZM1.16653 11.3411C1.16653 8.62875 1.16653 5.91568 1.16653 3.20329C1.16653 1.97536 1.97699 1.17879 3.23219 1.17811C7.38689 1.17676 11.5423 1.17676 15.697 1.17811C16.9281 1.17811 17.7496 1.98683 17.751 3.19587C17.753 5.31285 17.751 7.43051 17.751 9.5475V9.73584C17.7303 9.74867 17.7104 9.76217 17.6898 9.775C17.6423 9.71289 17.6011 9.64404 17.5461 9.59003C16.5679 8.62672 15.5891 7.66544 14.6088 6.70415C14.2355 6.33827 13.9441 6.33894 13.5708 6.70685C12.0221 8.23249 10.4727 9.75745 8.92944 11.2878C8.80639 11.41 8.74659 11.4073 8.6256 11.2865C7.61236 10.2752 6.59156 9.27073 5.57282 8.26489C5.19337 7.89023 4.90603 7.89766 4.52109 8.26489C3.40542 9.32743 2.28426 10.3846 1.16516 11.4437V11.5538C1.1521 11.5295 1.13904 11.5052 1.12598 11.4809C1.13904 11.4687 1.1521 11.4559 1.16516 11.4437V11.3418L1.16653 11.3411ZM14.1029 17.8568C10.5022 17.8568 6.90089 17.8568 3.30025 17.8568C2.27532 17.8568 1.50199 17.3066 1.23459 16.3892C1.18097 16.2043 1.16653 16.0139 1.16653 15.8222C1.16653 15.0209 1.16928 14.2196 1.16378 13.4183C1.1631 13.29 1.20296 13.2023 1.29439 13.1125C2.5001 11.9264 3.70376 10.7376 4.90191 9.54413C5.02014 9.42667 5.07651 9.42532 5.19543 9.54345C6.20592 10.5466 7.22466 11.543 8.24065 12.5414C8.62079 12.9147 8.937 12.9147 9.31507 12.5427C10.8583 11.0225 12.4022 9.50295 13.94 7.97731C14.0664 7.85175 14.1262 7.86323 14.2452 7.98136C15.2055 8.94062 16.1733 9.89313 17.1378 10.8483C17.1838 10.8942 17.2464 10.928 17.2622 10.9989C14.0994 11.7928 12.7487 15.1768 14.3063 17.8575C14.2314 17.8575 14.1675 17.8575 14.1036 17.8575L14.1029 17.8568ZM18.3174 18.8424C16.548 18.8458 14.8384 17.3917 14.8597 15.4577C14.8803 13.5641 16.4043 12.054 18.3236 12.0553C20.2462 12.0567 21.7888 13.5688 21.7902 15.4543C21.7915 17.3397 20.2462 18.8383 18.3174 18.8424Z" fill="white"/>
<path d="M8.67073 8.04392C7.80803 8.04594 7.10137 7.35806 7.09381 6.50951C7.08625 5.65556 7.79909 4.94607 8.6666 4.94337C9.52174 4.94067 10.2366 5.63868 10.2442 6.48318C10.2518 7.33781 9.54236 8.04122 8.67073 8.04324V8.04392Z" fill="white"/>
<path d="M17.6763 14.9682C17.5814 15.0715 17.4941 15.1829 17.391 15.2761C17.1504 15.4934 16.7627 15.4968 16.5551 15.2909C16.3345 15.0722 16.3331 14.6894 16.5675 14.4545C17.0074 14.0137 17.4515 13.5769 17.9011 13.1456C18.1561 12.9005 18.4702 12.8891 18.7424 13.1422C19.2092 13.5763 19.6629 14.0259 20.1076 14.4815C20.3283 14.7077 20.3111 15.0857 20.1042 15.2842C19.8801 15.4995 19.4972 15.4948 19.2525 15.2673C19.1508 15.1735 19.058 15.0702 18.9164 14.925C18.9164 15.1768 18.9164 15.3638 18.9164 15.5508C18.9164 16.1165 18.9177 16.6822 18.9164 17.2479C18.915 17.6219 18.6682 17.8926 18.3327 17.8967C17.9959 17.9007 17.7409 17.6314 17.7395 17.2594C17.7361 16.5762 17.7388 15.8924 17.7388 15.2092C17.7388 15.1384 17.7388 15.0675 17.7388 14.9966L17.6776 14.9669L17.6763 14.9682Z" fill="white"/>
</g>
<defs>
<clipPath id="clip0_2109_24808">
<rect width="23" height="20" fill="white"/>
</clipPath>
</defs>
</svg>
