<svg width="23" height="22" viewBox="0 0 23 22" fill="none" xmlns="http://www.w3.org/2000/svg">
<g clip-path="url(#clip0_4144_12)">
<path d="M22.9982 6.81192C22.6876 7.54645 22.3768 8.28098 22.0659 9.01552C21.8359 9.56104 21.5176 9.69287 20.9918 9.45727C20.3166 9.15389 19.6369 8.85378 18.9626 8.54432C18.6574 8.40408 18.5169 8.12922 18.5543 7.79218C18.5849 7.51685 18.8041 7.28078 19.0918 7.20786C19.2457 7.16906 19.3866 7.20786 19.5271 7.26909C19.7782 7.38128 20.0312 7.49067 20.2959 7.60706C20.3081 7.48085 20.2455 7.38783 20.2059 7.2948C18.8622 4.19509 16.6047 2.24625 13.3848 1.58713C8.49657 0.590511 3.76368 3.83841 2.64866 8.91081C2.51361 9.53533 1.92031 9.78028 1.50572 9.38247C1.32296 9.20717 1.24419 8.99027 1.29775 8.73177C1.79922 6.30706 2.96016 4.28437 4.76032 2.66182C6.20753 1.34804 7.97977 0.480799 9.87673 0.158114C14.7145 -0.692193 19.4352 1.94708 21.4082 6.63054C21.4321 6.68664 21.4564 6.74273 21.492 6.82641C21.5509 6.69131 21.6072 6.58006 21.6495 6.46319C21.7724 6.12709 21.9808 5.91533 22.3477 5.92235C22.6583 5.92795 22.8582 6.10185 22.9982 6.48563V6.81192Z" fill="white"/>
<path d="M1.52303 14.2501C1.42355 14.4343 1.34658 14.5933 1.25565 14.7433C1.16186 14.9001 1.01271 15.0126 0.840099 15.0567C0.667482 15.1009 0.485096 15.0731 0.331937 14.9794C0.184555 14.8909 0.0754907 14.7471 0.0272447 14.5776C-0.0210014 14.408 -0.00474896 14.2257 0.0726499 14.0683C0.451377 13.3306 0.839707 12.5983 1.23764 11.8712C1.42265 11.5337 1.79898 11.4314 2.13389 11.6169C2.83103 12.0031 3.52381 12.3973 4.21224 12.7996C4.36871 12.8885 4.48494 13.0382 4.53554 13.2158C4.58615 13.3934 4.56702 13.5846 4.48233 13.7476C4.39398 13.9121 4.24675 14.0338 4.07257 14.0863C3.89839 14.1388 3.7113 14.1179 3.55187 14.0281C3.30248 13.8949 3.0594 13.7476 2.77355 13.5859C2.90013 14.1092 3.08126 14.6165 3.31373 15.099C4.73891 18.0721 7.02478 19.9139 10.1718 20.4589C15.1576 21.3247 19.6078 17.9529 20.6751 13.2227C20.752 12.8833 20.8121 12.54 20.8552 12.1943C20.907 11.7763 21.2414 11.4861 21.6106 11.5309C21.9936 11.5777 22.2543 11.9203 22.2012 12.3448C21.8293 15.3318 20.5018 17.7673 18.2398 19.6437C16.7609 20.8837 14.9759 21.6667 13.0888 21.9034C10.0129 22.3021 7.25616 21.4784 4.86225 19.4258C3.29213 18.08 2.20276 16.3822 1.57615 14.3675C1.5649 14.3408 1.55184 14.3146 1.52303 14.2501Z" fill="white"/>
<path d="M16.2802 11.0083C16.8883 9.35284 16.6561 7.83469 15.5839 6.45381C15.5001 6.34583 15.5267 6.29908 15.6001 6.2112C15.8634 5.89567 16.0016 5.52684 15.9953 4.99581C15.9953 4.2446 15.3772 3.51444 14.5616 3.4158C13.7373 3.3153 12.9518 3.88326 12.7772 4.72889C12.7421 4.89905 12.6813 4.90933 12.5449 4.90746C10.8586 4.88565 9.56955 5.61909 8.67765 7.10779C8.12036 8.04271 7.56608 8.98012 7.0148 9.92002C6.95853 10.0158 6.91441 10.0836 6.77712 10.0743C5.86781 10.013 5.35149 10.6034 5.10166 11.4715C4.89234 12.197 5.25741 12.9258 5.96639 13.2895C7.18855 13.9163 8.40936 14.5465 9.63422 15.1682C9.77827 15.2411 9.80393 15.3042 9.74316 15.4613C9.54059 15.9858 9.5775 16.4972 9.89756 16.9637C10.593 17.979 12.0826 17.9813 12.7758 16.9637C12.8632 16.8351 12.9163 16.858 13.018 16.9141C13.2881 17.0633 13.5658 17.2058 13.8814 17.2058C14.5566 17.2058 15.0171 16.865 15.3219 16.248C15.637 15.6071 15.637 14.9957 15.1958 14.4249C15.0932 14.2926 15.09 14.1977 15.1436 14.0552C15.5259 13.0414 15.9048 12.0258 16.2802 11.0083ZM14.3824 4.8135C14.5296 4.8135 14.6683 4.98179 14.6426 5.12763C14.6124 5.30246 14.5076 5.39969 14.3275 5.37819C14.1564 5.35762 14.0903 5.24216 14.0943 5.06546C14.1191 4.89905 14.2231 4.81397 14.3824 4.8135ZM11.2557 16.3242C11.1319 16.2915 11.0616 16.1933 11.0306 16.0652C11.0198 16.0185 11.0022 15.9717 11.0351 15.9339C11.0801 15.8834 11.1166 15.9385 11.1503 15.9554C11.3092 16.033 11.4654 16.1171 11.632 16.2041C11.528 16.3499 11.3943 16.3611 11.2557 16.3242ZM15.0216 10.481C14.5872 11.6407 14.1578 12.8024 13.7247 13.9621C13.5051 14.5502 13.5933 14.8835 14.0889 15.2682C14.2825 15.4183 14.1218 15.5407 14.0727 15.6688C14.0088 15.8348 13.8967 15.7932 13.7783 15.7319C12.7787 15.2159 11.7783 14.7009 10.7772 14.187L6.63262 12.0549C6.38639 11.9282 6.36252 11.7123 6.56599 11.5145C6.63351 11.4495 6.69789 11.4781 6.77171 11.5033C7.27543 11.6758 7.65356 11.5295 7.93625 11.0527C8.58177 9.96349 9.21738 8.86824 9.8719 7.78467C10.9072 6.07096 13.0959 5.80311 14.4306 7.22372C14.9708 7.79822 15.2381 8.49707 15.2454 9.46752C15.2508 9.71387 15.1639 10.1023 15.0216 10.4819V10.481Z" fill="white"/>
</g>
<defs>
<clipPath id="clip0_4144_12">
<rect width="23" height="22" fill="white"/>
</clipPath>
</defs>
</svg>
