<svg width="25" height="24" viewBox="0 0 25 24" fill="none" xmlns="http://www.w3.org/2000/svg">
<path d="M24.0019 13.1397C24.0169 12.3262 23.5239 11.748 22.9057 11.5421C22.6823 11.4677 22.6279 11.3444 22.6304 11.1291C22.6392 10.31 22.6367 9.49094 22.6304 8.67183C22.632 8.19253 22.4972 7.72267 22.2419 7.31708C22.0498 6.99832 21.7923 6.72398 21.4863 6.51222C21.1803 6.30046 20.8328 6.15612 20.4669 6.08873C20.1503 6.02616 20.1503 6.02616 20.1503 5.69576C20.1503 5.29028 20.1503 4.88229 20.1503 4.47868C20.1503 3.40176 19.422 2.67652 18.3421 2.6759C16.9923 2.6759 15.6427 2.6759 14.2934 2.6759C13.9918 2.6759 13.9806 2.66151 13.8754 2.37679C13.7046 1.91624 13.5682 1.44192 13.3643 0.994506C13.0777 0.36375 12.5903 0.0214649 11.8833 0.000815169C11.4985 -0.0104483 11.1463 0.0965572 10.7928 0.226087C8.83756 0.942571 6.87922 1.65092 4.92338 2.36615C4.28645 2.59893 3.64264 2.81544 3.01322 3.07012C2.11476 3.4343 1.71183 4.34602 2.03655 5.26024C2.09912 5.43608 2.16168 5.61316 2.22425 5.789C2.30997 6.02115 2.29683 6.05119 2.04531 6.09875C1.6673 6.16873 1.3122 6.3303 1.01108 6.56931C0.453609 7.00734 0.0406684 7.54047 0.024401 8.29388C0.013139 8.37835 0.0500534 8.46784 0 8.54856V21.7994C0.0531818 22.0954 0.0944758 22.3914 0.250267 22.6592C0.691989 23.4101 1.3139 23.8969 2.19922 24.0002H2.48015C2.56086 23.9551 2.64845 23.977 2.73042 23.977C8.4144 23.977 14.0986 23.977 19.783 23.977C19.8668 23.977 19.9544 23.9551 20.0333 24.0002H20.2673C20.4769 23.947 20.6977 23.9714 20.9061 23.8926C21.4099 23.7029 21.8441 23.3646 22.1513 22.9226C22.4584 22.4805 22.624 21.9554 22.626 21.4171C22.6292 20.5586 22.6304 19.7007 22.626 18.8428C22.626 18.655 22.6742 18.5505 22.8719 18.4873C23.2042 18.3799 23.4931 18.1684 23.6959 17.8841C23.8988 17.5998 24.0047 17.2578 23.9981 16.9086C23.9769 15.6521 23.9781 14.3958 24.0019 13.1397ZM18.3546 4.14265C18.6174 4.14265 18.6812 4.20961 18.6818 4.47743C18.6818 4.95237 18.6718 5.42857 18.6875 5.90351C18.6943 6.09124 18.6249 6.11377 18.4641 6.11251C17.4042 6.10563 16.3443 6.10876 15.2844 6.10876C14.2246 6.10876 13.1647 6.10438 12.1048 6.11376C11.9277 6.11376 11.8846 6.06934 11.8896 5.896C11.9027 5.42857 11.8933 4.96051 11.894 4.49307C11.894 4.20773 11.9565 4.14265 12.2293 4.14265H18.3546ZM3.64014 4.39295C6.30632 3.42095 8.9725 2.45021 11.6387 1.48071C11.8889 1.39061 11.974 1.43128 12.066 1.67782C12.1661 1.94752 12.2537 2.22285 12.3619 2.4913C12.442 2.68403 12.4295 2.7466 12.1911 2.7416C11.4003 2.73159 10.784 3.17963 10.5644 3.89361C10.5111 4.07325 10.486 4.26006 10.49 4.44739C10.4931 4.9311 10.4812 5.41543 10.4962 5.89851C10.5018 6.08248 10.4418 6.11189 10.2747 6.11064C9.24487 6.1025 8.21502 6.10626 7.18517 6.10626C6.15532 6.10626 5.1261 6.10626 4.09625 6.11001C3.95798 6.11001 3.89103 6.07121 3.84598 5.93793C3.72085 5.56248 3.57507 5.19266 3.44117 4.81971C3.35045 4.5763 3.39175 4.48556 3.64014 4.39546V4.39295ZM21.1632 21.3633C21.1632 22.0842 20.6627 22.5898 19.9457 22.5898C14.1728 22.5898 8.40001 22.5898 2.62718 22.5898C1.90829 22.5898 1.40775 22.0892 1.40775 21.3658C1.40775 17.1599 1.40775 12.9545 1.40775 8.74942C1.40775 7.99852 1.89953 7.51482 2.65909 7.51419C5.53716 7.51419 8.41524 7.51419 11.2933 7.51419C14.1407 7.51419 16.9869 7.52859 19.8356 7.50481C20.6571 7.49855 21.2001 8.0805 21.1701 8.83953C21.1369 9.65739 21.157 10.4777 21.167 11.2969C21.167 11.4664 21.1188 11.4996 20.9586 11.4983C20.1711 11.4896 19.3834 11.4885 18.5955 11.4952C16.5971 11.5102 15.0479 13.0946 15.0774 15.0883C15.1043 16.9367 16.6465 18.483 18.5073 18.5142C19.3263 18.528 20.1459 18.5224 20.9649 18.5142C21.1319 18.5142 21.1682 18.5581 21.1664 18.7195C21.1595 19.5999 21.1657 20.4816 21.1632 21.3633ZM22.5691 16.816C22.5691 17.0394 22.4515 17.1151 22.2444 17.1138C21.6131 17.1101 20.9818 17.1138 20.2185 17.1138C19.6422 17.0832 18.9302 17.1764 18.2257 17.0719C17.1715 16.9148 16.4113 15.9255 16.487 14.8417C16.5614 13.7923 17.4536 12.9194 18.5029 12.9063C19.7573 12.89 21.0131 12.9019 22.2682 12.8981C22.4715 12.8981 22.5697 12.9851 22.5691 13.1916C22.5674 14.3997 22.5674 15.6078 22.5691 16.816Z" fill="white"/>
</svg>
