<svg width="25" height="25" viewBox="0 0 25 25" fill="none" xmlns="http://www.w3.org/2000/svg">
<path d="M23.939 10.3208C23.7692 9.04967 23.3888 7.81572 22.8136 6.66961C22.0666 5.1609 21.0317 3.87409 19.7426 2.78853C18.3828 1.64293 16.8409 0.853861 15.1294 0.378168C13.6851 -0.0229349 12.2112 -0.0520207 10.7374 0.0497795C9.21482 0.156271 7.7832 0.629619 6.43035 1.32815C4.99075 2.07171 3.76406 3.08737 2.72211 4.32539C1.58309 5.67882 0.799513 7.21802 0.337154 8.92282C0.156118 9.59899 0.0431723 10.2916 0 10.9903V11.2248V11.6001V12.1162V12.3976V12.5384V12.8198V13.0075C0.0468924 13.236 0.0281341 13.4696 0.0572074 13.699C0.227223 14.9842 0.611608 16.2317 1.19435 17.3896C1.93853 18.8908 2.9711 20.1664 4.24938 21.2468C5.77479 22.5359 7.52107 23.3747 9.46992 23.8035C9.96463 23.9123 10.4678 23.9499 10.9705 24.0062H12.94C13.1843 23.9621 13.4342 23.9808 13.679 23.9489C14.9271 23.7849 16.1403 23.4194 17.2714 22.8666C18.8071 22.1212 20.1183 21.0807 21.2235 19.7812C22.5604 18.2096 23.4167 16.4073 23.8326 14.3905C23.9236 13.9486 23.9461 13.4991 24.0023 13.0544V12.5384V12.3976V12.1162V11.9285V11.647V11.5063V11.0841C23.9536 10.8308 23.9719 10.5737 23.939 10.3208ZM17.7736 20.8879C16.0147 22.0166 14.0916 22.5795 12.0101 22.5992C9.89992 22.5819 7.9642 22.0096 6.19542 20.8663C6.05474 20.7725 6.01958 20.6833 6.05147 20.5262C6.53821 18.1111 8.60944 16.153 11.0502 15.8054C14.2961 15.3437 17.1931 17.3066 17.9321 20.4722C17.9767 20.6594 17.956 20.7711 17.7736 20.8879ZM8.18881 10.5146C8.18743 9.76084 8.40937 9.02361 8.82659 8.396C9.24381 7.76839 9.83758 7.27857 10.5329 6.9884C11.2283 6.69823 11.994 6.62074 12.7333 6.7657C13.4726 6.91067 14.1524 7.2716 14.6868 7.8029C15.2213 8.33419 15.5863 9.01202 15.7358 9.75075C15.8853 10.4895 15.8127 11.256 15.527 11.9534C15.2413 12.6509 14.7554 13.248 14.1307 13.6693C13.506 14.0906 12.7705 14.3172 12.0171 14.3206C11.5157 14.3229 11.0188 14.2263 10.5548 14.0361C10.0909 13.846 9.66897 13.5661 9.31333 13.2125C8.95768 12.8589 8.67529 12.4386 8.48233 11.9757C8.28936 11.5127 8.18961 11.0162 8.18881 10.5146ZM19.2001 19.7493C18.8876 18.6652 18.335 17.6655 17.5834 16.8243C16.8317 15.9832 15.9003 15.3222 14.8583 14.8906C16.3814 13.7984 17.2128 12.3526 17.2133 10.485C17.2133 9.0082 16.6505 7.75517 15.5875 6.732C13.4886 4.71852 10.1264 4.84471 8.14053 7.00504C6.05334 9.27467 6.35861 13.03 9.13089 14.8863C6.94805 15.8588 5.50705 17.4694 4.79944 19.7334C2.21379 17.4609 0.620391 13.3532 1.79833 9.17005C3.03535 4.78466 6.93351 1.65466 11.5121 1.45763C16.1676 1.25496 20.349 4.04626 21.9433 8.38239C23.4964 12.6036 22.1496 17.072 19.2001 19.7493Z" fill="white"/>
</svg>
