<svg width="103" height="65" viewBox="0 0 103 65" fill="none" xmlns="http://www.w3.org/2000/svg">
<g clip-path="url(#clip0_2345_935)">
<path d="M0.950789 60.0768L0 57.9618C0 46.8471 0 35.7324 0 24.6208C0.617068 24.1219 1.35377 24.2945 2.04325 24.2945C22.5293 24.2851 43.0153 24.2882 63.4982 24.2882C72.7605 24.2882 82.0228 24.2882 91.282 24.2882C93.2749 24.2882 93.4291 24.4357 93.4323 26.4189C93.4417 30.6834 93.4417 34.9448 93.4323 39.2093C93.4323 40.226 93.3945 41.2458 92.9412 42.1904C92.5067 42.6454 91.9305 42.5481 91.3953 42.5512C89.2419 42.5669 87.0885 42.5512 84.9319 42.5606C84.4691 42.5606 83.9842 42.4759 83.5875 42.8211C82.9799 44.412 83.279 46.0438 83.3955 47.6536C83.4396 48.2529 84.0944 48.187 84.5446 48.1964C85.9141 48.231 87.2837 48.1964 88.6532 48.2153C89.1947 48.2215 89.7582 48.1525 90.2336 48.5228C90.4131 48.9872 90.1738 49.3669 89.9471 49.7246C86.1471 55.7088 80.647 59.0821 73.683 60.171C71.8569 60.4565 70.012 60.4345 68.1671 60.4345C46.4785 60.4283 24.7929 60.4345 3.10423 60.4251C2.37382 60.4251 1.59934 60.5946 0.950789 60.0737V60.0768Z" fill="#FEC150"/>
<path d="M0 6.77482C0.22353 6.70578 0.270754 6.50809 0.324276 6.32295C1.41044 2.56052 4.68783 -7.09489e-05 9.57715 0.0124809C23.9429 0.0532746 38.3086 0.0281708 52.6743 0.0281708C63.0763 0.0281708 73.4783 0.0281708 83.8772 0.0281708C84.2676 0.0281708 84.7682 0.00934298 85.1585 0.0281708C85.6591 -0.0440026 93.9958 0.0281708 93.9958 0.0281708C100.226 0.0281708 102.975 3.8565 102.975 7.2612C102.975 7.53421 102.836 12.5299 102.956 12.7746C103.154 13.1763 89.9471 12.9252 89.4434 13.1198C88.8295 13.3049 88.1967 13.2547 87.5701 13.2547C59.0969 13.2547 30.6204 13.2579 2.14715 13.2516C1.41674 13.2516 0.642255 13.4022 0 12.8719V6.77482H0Z" fill="#FEC150"/>
<path d="M0 12.8788C0.506877 12.86 1.0169 12.8223 1.52378 12.8223C30.9321 12.816 60.3436 12.816 89.7519 12.8129C91.8613 12.3987 101.634 13.5629 101.958 13.8108C102.531 14.4007 93.4795 14.3725 94.1785 14.8181C94.6287 15.1067 93.489 15.477 93.4386 16.0638C93.3945 18.3169 93.4386 20.57 93.4134 22.823C93.4071 23.391 93.511 24.006 93.0104 24.461C92.5791 24.5269 92.1478 24.4956 91.7165 24.4956C61.6092 24.4956 31.502 24.4956 1.39155 24.4924C0.92875 24.4924 0.450208 24.6054 0.00314831 24.3857V12.8788H0Z" fill="#407092"/>
<path d="M0.00163242 24.3844C0.392022 24.3938 0.785561 24.4095 1.17595 24.4095C31.3745 24.4095 61.5731 24.4095 91.7716 24.4095C92.2029 24.4095 92.6343 24.3876 93.0624 24.375C93.4024 24.0581 93.8306 24.0204 94.2619 24.0173C96.7113 23.9953 99.1607 23.9984 101.61 24.0173C102.076 24.0204 102.555 24.033 102.891 24.4378C102.904 26.5873 102.929 28.7399 102.929 30.8894C102.936 38.9101 102.759 46.9339 102.989 54.9483C103.15 60.5119 99.5668 65.0494 92.8295 64.9961C74.8526 64.8549 56.8758 64.949 38.8958 64.949C29.0038 64.949 19.1119 64.9553 9.21987 64.9459C5.75989 64.9427 2.97678 63.6405 1.14132 60.6092C1.04372 60.4492 1.00594 60.2515 0.942976 60.0726C24.1743 60.0726 47.4057 60.0977 70.637 60.0506C76.049 60.0381 80.869 58.2275 85.0909 54.7757C87.2223 53.0341 88.8059 50.9066 90.2195 48.6033C90.2951 48.4872 90.399 48.4056 90.5249 48.3523C91.2868 48.1326 92.0676 48.233 92.842 48.2236C93.5819 48.2142 93.8904 47.8847 93.8778 47.1567C93.8621 46.1902 93.818 45.2174 93.8904 44.2541C93.9628 43.3033 93.711 42.6004 92.8074 42.1956C93.2891 36.8547 92.9428 31.5045 93.0404 26.1574C93.0687 24.6198 93.0435 24.6198 91.5386 24.6198C61.0221 24.6198 30.5056 24.6198 -0.0078125 24.6198V24.3844H0.00163242Z" fill="#EAAF44"/>
<path d="M93.2993 12.7772C95.0529 12.8211 101.844 12.752 102.955 12.7772C102.955 12.7772 102.996 16.7216 102.955 18.2906C102.933 20.3397 102.914 22.3856 102.892 24.4347C99.6148 24.4253 96.3374 24.5477 93.06 24.372C93.06 21.8333 93.0506 19.2947 93.0569 16.7592C93.0569 16.3827 93.1324 13.2761 93.2993 12.7772Z" fill="#365E7D"/>
<path d="M90.4573 48.5292C90.3818 48.5543 90.3031 48.5825 90.2275 48.6077C88.1465 48.5951 86.0686 48.5543 83.9876 48.5857C83.2162 48.5982 82.9108 48.3347 82.9644 47.5721C83.0872 45.8713 82.744 44.1517 83.1533 42.4604C86.1505 42.2125 89.1539 42.4164 92.1543 42.3568C92.7021 42.3443 92.8532 42.7208 92.7651 43.1319C92.34 45.0743 91.8048 46.9759 90.4573 48.5292Z" fill="#F5F8F8"/>
<path d="M72.7473 47.2051C71.573 47.2051 70.3955 47.2271 69.2212 47.1988C67.9808 47.1706 67.1843 46.4206 67.2157 45.3725C67.2441 44.3684 68.0312 43.6404 69.1897 43.6278C71.5793 43.6058 73.972 43.6058 76.3616 43.6278C77.5768 43.6372 78.3922 44.4154 78.3639 45.4572C78.3356 46.4708 77.5768 47.1674 76.3931 47.1957C75.1778 47.2239 73.9626 47.2019 72.7473 47.2019V47.2051Z" fill="#407092"/>
<path d="M59.0852 43.6268C60.3004 43.6268 61.5125 43.6017 62.7278 43.633C63.9052 43.6613 64.6042 44.3673 64.5916 45.4405C64.579 46.4792 63.9336 47.1727 62.8033 47.1884C60.2973 47.2229 57.7912 47.2229 55.2852 47.1852C54.2336 47.1695 53.4906 46.3568 53.5001 45.3966C53.5127 44.4332 54.2588 43.6707 55.3261 43.6362C56.5791 43.5954 57.8322 43.6268 59.0852 43.6268Z" fill="#407092"/>
<path d="M45.3812 47.2039C44.1691 47.2039 42.9538 47.2259 41.7417 47.1976C40.5643 47.1694 39.8181 46.4665 39.8087 45.4498C39.7992 44.3703 40.5611 43.6423 41.7984 43.6298C44.1848 43.6078 46.5744 43.6078 48.9608 43.6298C50.1288 43.6423 50.8687 44.3515 50.8907 45.387C50.9128 46.4163 50.1792 47.16 49.0206 47.1914C47.8085 47.2259 46.5933 47.1976 45.3812 47.2008V47.2039Z" fill="#407092"/>
<path d="M90.4572 48.5286C91.049 46.8498 91.9211 45.2839 92.3902 43.5455C92.6673 42.5256 92.3147 42.4409 91.4709 42.4503C88.7004 42.4817 85.9268 42.4597 83.1562 42.4597C83.5057 42.0706 83.9654 42.2589 84.3715 42.2558C87.1861 42.2244 90.0038 42.215 92.8184 42.1993C94.0305 42.0298 94.3327 42.6009 94.2446 43.7275C94.1438 45.0423 94.1973 46.3697 94.232 47.6876C94.2477 48.3246 94.062 48.6133 93.3756 48.5788C92.4028 48.5254 91.43 48.5411 90.454 48.5286H90.4572Z" fill="#E6EBF0"/>
</g>
<defs>
<clipPath id="clip0_2345_935">
<rect width="103" height="65" fill="white"/>
</clipPath>
</defs>
</svg>
