<svg width="36" height="35" viewBox="0 0 36 35" fill="none" xmlns="http://www.w3.org/2000/svg">
<path fill-rule="evenodd" clip-rule="evenodd" d="M1.56923 23.6232C2.23992 24.1218 2.5476 24.779 2.48451 25.6145H2.48645C2.42142 26.8133 2.87372 27.5127 3.99865 27.9378C4.69652 28.2022 5.14688 28.692 5.32256 29.4197C5.64286 30.7459 6.14272 31.2082 7.50059 31.3551C8.28872 31.4403 8.84876 31.8321 9.22147 32.5295C9.74948 33.5168 10.5599 33.9027 11.6363 33.6617C12.4788 33.4727 13.1796 33.6794 13.7814 34.3033C14.5181 35.0673 15.4469 35.2093 16.3583 34.6911C17.1358 34.2484 17.8851 34.2563 18.6606 34.698C19.5419 35.1995 20.4844 35.0692 21.1822 34.3415C21.8228 33.6735 22.5605 33.459 23.4554 33.6784C24.3823 33.9056 25.2792 33.504 25.7198 32.6421C26.1517 31.7978 26.8088 31.3855 27.7377 31.3277C28.6976 31.2679 29.4149 30.6665 29.6051 29.7214C29.7973 28.7674 30.3098 28.166 31.2251 27.8486C32.0938 27.547 32.6354 26.6547 32.5344 25.7448C32.4325 24.8299 32.7431 24.1335 33.4759 23.5939C34.3097 22.9807 34.5853 22.0591 34.2097 21.1002C33.8807 20.2598 33.9874 19.5144 34.5319 18.8033C35.157 17.9874 35.158 17.0139 34.5358 16.2029C33.9903 15.4928 33.8642 14.7425 34.2097 13.908C34.3611 13.5427 34.4125 13.1597 34.3378 12.761C34.2223 12.1499 33.8942 11.6954 33.3983 11.3398C32.7674 10.8873 32.4616 10.2575 32.517 9.48083C32.6053 8.24181 32.1743 7.5131 31.029 7.07136C30.2632 6.77556 29.809 6.2349 29.6469 5.42489C29.4372 4.37295 28.7656 3.7461 27.7086 3.66872C26.7923 3.60212 26.1478 3.19074 25.7227 2.3631C25.2733 1.48844 24.3833 1.09666 23.4263 1.32781C22.544 1.54133 21.817 1.31802 21.1861 0.662758C20.4834 -0.0659602 19.54 -0.202105 18.6655 0.298399C17.8773 0.74993 17.1183 0.744053 16.3302 0.294481C15.4566 -0.204064 14.5093 -0.0630218 13.8105 0.667655C13.1912 1.31508 12.4749 1.53839 11.6043 1.33467C10.5794 1.09568 9.7359 1.49236 9.23992 2.4346C8.8507 3.17409 8.26446 3.57469 7.43168 3.65305C6.17475 3.77156 5.60986 4.29557 5.32935 5.53949C5.16338 6.27408 4.72466 6.77752 4.03651 7.05079C2.83587 7.52681 2.42724 8.14485 2.48839 9.45243C2.52527 10.2468 2.23118 10.8726 1.60223 11.3496C0.667537 12.0578 0.420033 12.8933 0.822834 13.9834C1.11304 14.7689 1.00919 15.4849 0.503505 16.1529C-0.165241 17.0364 -0.169124 17.96 0.499623 18.8415C1.01696 19.5232 1.1111 20.249 0.814099 21.0453C0.425857 22.0865 0.681126 22.9631 1.56923 23.6232ZM17.0834 10.0634C17.1483 10.044 17.2132 10.0245 17.2759 10V10.0006H17.7678C18.656 10.2579 18.9477 10.8347 18.9411 11.6645C18.9217 14.0778 18.9255 16.4914 18.9293 18.9049C18.9305 19.6856 18.9317 20.4662 18.9322 21.2468C18.9322 21.262 18.931 21.2775 18.9297 21.2933C18.9254 21.3489 18.9208 21.4084 18.9669 21.4705C18.988 21.4496 19.0081 21.4293 19.0278 21.4096C19.0792 21.358 19.1267 21.3103 19.1761 21.2645C19.3941 21.0634 19.6119 20.862 19.8296 20.6607C20.3958 20.1373 20.962 19.6139 21.5323 19.0942C22.1671 18.5163 23.133 18.5559 23.6811 19.1736C24.1551 19.708 24.0966 20.459 23.5329 20.9796C22.3867 22.0377 21.2396 23.0947 20.0924 24.1518C19.6005 24.6051 19.1085 25.0584 18.6166 25.5118C17.9107 26.1625 17.0882 26.1631 16.3817 25.5124C14.7582 24.0165 13.1354 22.5207 11.5132 21.0237C11.4241 20.941 11.3362 20.8556 11.2627 20.7614C10.8879 20.2804 10.9196 19.6099 11.3321 19.157C11.8766 18.5592 12.83 18.5179 13.4498 19.0799C14.0764 19.6481 14.6962 20.2222 15.3161 20.7964C15.5005 20.9671 15.6849 21.1379 15.8694 21.3085C15.9071 21.3433 15.9381 21.3843 15.969 21.4252C15.9832 21.444 15.9974 21.4628 16.0123 21.481L16.0685 21.4457V21.227C16.0685 20.4079 16.0685 19.5887 16.0686 18.7696C16.0688 16.3121 16.0691 13.8547 16.0673 11.3972C16.0667 10.8843 16.2807 10.4826 16.7475 10.1967C16.8516 10.1328 16.9676 10.0981 17.0834 10.0634Z" fill="#00AB4F"/>
</svg>
