<svg width="35" height="35" viewBox="0 0 35 35" fill="none" xmlns="http://www.w3.org/2000/svg">
<g clip-path="url(#clip0_2090_19881)">
<path fill-rule="evenodd" clip-rule="evenodd" d="M1.56825 23.6242C2.23894 24.1228 2.54662 24.78 2.48353 25.6155H2.48547C2.42044 26.8143 2.87275 27.5137 3.99768 27.9387C4.69554 28.2032 5.1459 28.6929 5.32158 29.4207C5.64188 30.7469 6.14174 31.2092 7.49962 31.3561C8.28775 31.4413 8.84779 31.8331 9.2205 32.5304C9.74851 33.5177 10.559 33.9037 11.6354 33.6627C12.4778 33.4737 13.1786 33.6803 13.7804 34.3042C14.5171 35.0682 15.446 35.2103 16.3574 34.6921C17.1348 34.2494 17.8841 34.2572 18.6596 34.699C19.5409 35.2005 20.4834 35.0702 21.1813 34.3424C21.8219 33.6745 22.5595 33.46 23.4544 33.6794C24.3813 33.9066 25.2782 33.505 25.7188 32.6431C26.1508 31.7988 26.8078 31.3864 27.7367 31.3287C28.6966 31.2689 29.4139 30.6675 29.6042 29.7223C29.7963 28.7683 30.3088 28.167 31.2241 27.8496C32.0928 27.5479 32.6344 26.6557 32.5334 25.7457C32.4315 24.8309 32.7421 24.1345 33.4749 23.5948C34.3087 22.9817 34.5843 22.06 34.2087 21.1011C33.8797 20.2608 33.9864 19.5154 34.5309 18.8043C35.156 17.9884 35.157 17.0148 34.5348 16.2038C33.9894 15.4937 33.8632 14.7435 34.2087 13.909C34.3601 13.5436 34.4116 13.1607 34.3368 12.762C34.2213 12.1508 33.8933 11.6964 33.3973 11.3408C32.7664 10.8883 32.4607 10.2585 32.516 9.48181C32.6043 8.24279 32.1734 7.51407 31.028 7.07234C30.2622 6.77654 29.808 6.23588 29.6459 5.42587C29.4362 4.37393 28.7646 3.74707 27.7076 3.6697C26.7914 3.60309 26.1469 3.19172 25.7217 2.36408C25.2724 1.48942 24.3823 1.09763 23.4253 1.32879C22.543 1.54231 21.816 1.31899 21.1851 0.663734C20.4824 -0.0649836 19.539 -0.201128 18.6645 0.299375C17.8763 0.750906 17.1173 0.745029 16.3292 0.295457C15.4557 -0.203087 14.5084 -0.0620452 13.8095 0.668632C13.1903 1.31605 12.474 1.53937 11.6033 1.33564C10.5784 1.09666 9.73492 1.49334 9.23894 2.43558C8.84973 3.17507 8.26348 3.57567 7.4307 3.65402C6.17377 3.77254 5.60888 4.29655 5.32837 5.54046C5.1624 6.27506 4.72369 6.7785 4.03553 7.05177C2.83489 7.52779 2.42627 8.14583 2.48741 9.4534C2.5243 10.2477 2.2302 10.8736 1.60125 11.3506C0.666561 12.0588 0.419057 12.8942 0.821858 13.9844C1.11207 14.7699 1.00821 15.4859 0.502529 16.1539C-0.166218 17.0374 -0.1701 17.961 0.498646 18.8425C1.01598 19.5242 1.11013 20.25 0.813122 21.0463C0.42488 22.0875 0.680149 22.9641 1.56825 23.6242ZM11.214 16.5154L11.2141 17.4557C11.2141 17.776 11.2144 18.0962 11.2147 18.4165C11.2157 19.3774 11.2166 20.3382 11.2093 21.2991C11.2083 21.5185 11.2588 21.6027 11.4888 21.5909C11.8625 21.5733 12.2381 21.5763 12.6128 21.5909C12.8156 21.5988 12.8826 21.539 12.8787 21.3275C12.8728 20.9947 12.8737 20.6617 12.8747 20.3287V20.3286C12.8757 19.954 12.8768 19.5793 12.8681 19.205C12.8613 18.9356 12.9088 18.8073 13.2136 18.8377C13.5252 18.8681 13.8425 18.8563 14.156 18.8406C14.3783 18.8299 14.4938 18.8847 14.5686 19.1247C14.6955 19.531 14.8361 19.9329 14.9767 20.3348L14.9768 20.3348L14.9768 20.3349L14.9768 20.335L14.9768 20.335L14.9769 20.3351C15.0931 20.6674 15.2094 20.9997 15.3179 21.3343C15.3829 21.5361 15.4761 21.5998 15.678 21.5919C16.0769 21.5772 16.4758 21.5763 16.8747 21.5919C17.1348 21.6027 17.2173 21.5606 17.1047 21.2746C16.8214 20.5527 16.5571 19.8237 16.2925 19.0943L16.1536 18.7113C16.146 18.6905 16.136 18.6695 16.126 18.6484C16.0823 18.5558 16.037 18.4599 16.1768 18.3626C17.0727 17.7368 17.2882 16.8229 17.2416 15.7935C17.1795 14.4282 16.404 13.5751 15.0471 13.4291C14.2917 13.3475 13.534 13.3582 12.7764 13.3688H12.7764H12.7764H12.7764H12.7764H12.7763H12.7763H12.7763H12.7762C12.3249 13.3752 11.8736 13.3816 11.4228 13.3684C11.1951 13.3618 11.2035 13.4889 11.2119 13.6163C11.2135 13.6404 11.2151 13.6645 11.2151 13.6877C11.2137 14.6303 11.2138 15.5728 11.214 16.5154ZM18.6403 16.4813L18.6403 16.4778C18.6418 15.5559 18.6433 14.6339 18.6334 13.7123C18.6305 13.441 18.6994 13.3626 18.975 13.3656C20.5231 13.3793 22.0712 13.3773 23.6194 13.3665C23.8572 13.3646 23.9367 13.4292 23.9202 13.6711C23.8999 13.963 23.8999 14.2578 23.9202 14.5487C23.9358 14.775 23.8669 14.8357 23.6417 14.8328C23.1132 14.8262 22.5848 14.8264 22.0565 14.8267H22.0565H22.0565H22.0564C21.5688 14.8269 21.0813 14.8272 20.594 14.822C20.3659 14.8191 20.2747 14.8671 20.2873 15.1188C20.3086 15.5449 20.3086 15.9739 20.2873 16.3999C20.2737 16.6644 20.3348 16.7584 20.6192 16.7506C20.9905 16.7394 21.3622 16.7412 21.7338 16.743H21.7338H21.7339H21.7339C22.1123 16.7449 22.4906 16.7468 22.8681 16.7349C23.1544 16.7261 23.2214 16.8221 23.1981 17.0855C23.1758 17.3402 23.1719 17.5998 23.1981 17.8534C23.2292 18.1453 23.1078 18.1933 22.8506 18.1874C22.509 18.1797 22.1671 18.1813 21.8253 18.1828C21.4292 18.1846 21.0331 18.1863 20.6377 18.1737C20.3387 18.1639 20.2717 18.2648 20.2863 18.543C20.3086 18.969 20.3067 19.398 20.2863 19.8241C20.2747 20.0768 20.3475 20.1581 20.6056 20.1542C21.1236 20.1466 21.6419 20.1474 22.1602 20.1481C22.646 20.1489 23.1318 20.1496 23.6174 20.1434C23.8523 20.1405 23.9416 20.2002 23.9183 20.4451C23.9057 20.576 23.921 20.7228 23.9361 20.8673C23.964 21.1337 23.991 21.3925 23.8407 21.5303C23.697 21.6613 23.409 21.6347 23.1247 21.6084C23.0094 21.5977 22.8947 21.5871 22.7905 21.5871C22.3441 21.5882 21.8978 21.5876 21.4516 21.5871H21.4515H21.4514H21.4513C20.6277 21.5861 19.8042 21.5851 18.9808 21.594C18.7159 21.5969 18.6295 21.5362 18.6324 21.2531C18.6444 20.3363 18.6425 19.4194 18.6406 18.5025V18.5021C18.6399 18.1625 18.6392 17.8228 18.6392 17.4832C18.6392 17.1494 18.6397 16.8155 18.6403 16.4815V16.4814V16.4813ZM25.2868 16.4852C25.2864 16.8132 25.286 17.1413 25.286 17.4694L25.2889 17.4704C25.2889 17.8079 25.2897 18.1454 25.2904 18.4828V18.4829V18.4829C25.2925 19.403 25.2946 20.3229 25.2811 21.2423C25.2772 21.5401 25.3685 21.5998 25.6441 21.5969C26.4793 21.5872 27.3149 21.5882 28.1506 21.5891H28.1506H28.1507C28.5853 21.5896 29.02 21.5901 29.4547 21.5891C29.5553 21.5888 29.6667 21.5988 29.7789 21.6088C30.0554 21.6336 30.3361 21.6588 30.468 21.5313C30.6205 21.3837 30.5938 21.1268 30.5664 20.8631C30.5516 20.7207 30.5366 20.5762 30.5496 20.446C30.5748 20.1992 30.4768 20.1424 30.2458 20.1453C29.6962 20.1518 29.1463 20.1514 28.5964 20.1511C28.1422 20.1509 27.688 20.1506 27.234 20.1541C27.0263 20.1561 26.9253 20.115 26.9341 19.875C26.9496 19.399 26.9476 18.923 26.9341 18.4469C26.9282 18.2393 26.9933 18.1737 27.199 18.1786C27.7067 18.1913 28.2153 18.1913 28.7229 18.1796C28.8332 18.1768 28.9543 18.1907 29.0754 18.2045C29.3484 18.2357 29.621 18.2668 29.7682 18.1081C29.9038 17.9618 29.8778 17.712 29.8512 17.4554C29.8367 17.3151 29.8219 17.1728 29.8333 17.0444C29.8546 16.7975 29.7634 16.7348 29.5275 16.7388C29.1687 16.7453 28.8094 16.7443 28.4502 16.7432C28.0592 16.742 27.6681 16.7409 27.2777 16.7495C27.0185 16.7554 26.9117 16.7035 26.9311 16.4146C26.9574 16.014 26.9564 15.6085 26.9311 15.2069C26.9127 14.914 26.9797 14.8112 27.2971 14.819C27.8284 14.8323 28.36 14.8309 28.8916 14.8295C29.3399 14.8283 29.7881 14.8271 30.2361 14.8347C30.4952 14.8386 30.569 14.7612 30.5496 14.5085C30.5272 14.2294 30.5272 13.9463 30.5496 13.6672C30.569 13.4145 30.468 13.3665 30.2399 13.3675C28.6918 13.3763 27.1427 13.3782 25.5946 13.3655C25.3287 13.3636 25.2792 13.4527 25.2811 13.6975C25.289 14.627 25.2879 15.556 25.2868 16.4852ZM4.86738 16.4891V16.489V16.489C4.86868 15.5579 4.86999 14.6265 4.86064 13.6956C4.8587 13.4448 4.92082 13.3645 5.17997 13.3665C6.70382 13.3792 8.22767 13.3773 9.75249 13.3675C9.98349 13.3665 10.0776 13.4184 10.0582 13.6682C10.0369 13.9473 10.0359 14.2304 10.0582 14.5095C10.0786 14.7612 10.0068 14.8396 9.7457 14.8357C9.23411 14.827 8.72225 14.8276 8.21041 14.8283C7.74243 14.8289 7.27445 14.8295 6.8067 14.8229C6.56987 14.82 6.49514 14.8817 6.50193 15.1256C6.51843 15.7358 6.52037 16.346 6.50193 16.9562C6.49417 17.2128 6.59026 17.2549 6.81447 17.251C7.15311 17.2458 7.49176 17.2468 7.8304 17.2477C8.25368 17.2489 8.67696 17.2502 9.10024 17.2393C9.36425 17.2324 9.43025 17.3196 9.41084 17.5674C9.38948 17.8465 9.38851 18.1296 9.41084 18.4087C9.43122 18.6634 9.32542 18.7094 9.10024 18.7065C8.76923 18.7008 8.43802 18.702 8.10688 18.7032H8.10684C7.70005 18.7046 7.29336 18.7061 6.88726 18.6947C6.59705 18.6869 6.49029 18.7516 6.50096 19.0679C6.51381 19.4615 6.51196 19.8556 6.51012 20.2498C6.50848 20.6002 6.50684 20.9508 6.51552 21.3011C6.52134 21.5606 6.42137 21.6028 6.20105 21.593C5.86327 21.5783 5.52259 21.5724 5.18579 21.5949C4.93343 21.6116 4.8587 21.5352 4.86161 21.2746C4.87157 20.3438 4.87006 19.413 4.86854 18.4821V18.482C4.86799 18.1435 4.86743 17.805 4.86743 17.4665H4.86646C4.86646 17.1408 4.86692 16.815 4.86738 16.4891ZM12.8769 15.7861C12.8758 15.8869 12.8747 15.9876 12.8747 16.0883H12.8737C12.8737 16.1927 12.8744 16.2971 12.875 16.4015C12.8766 16.6625 12.8782 16.9234 12.8699 17.1844C12.864 17.3616 12.9242 17.4136 13.096 17.4096C13.3245 17.4041 13.5532 17.4044 13.782 17.4048C14.0361 17.4052 14.2903 17.4056 14.5442 17.3979C14.9877 17.3842 15.2925 17.1462 15.4526 16.7348C15.5837 16.3988 15.6041 16.0472 15.5216 15.6946C15.3905 15.1373 15.0411 14.8366 14.4752 14.817C14.2488 14.8091 14.0223 14.8099 13.7958 14.8108C13.5758 14.8116 13.3558 14.8125 13.1358 14.8053C12.9359 14.7984 12.8592 14.8523 12.8699 15.0658C12.8822 15.3052 12.8795 15.5457 12.8769 15.7861Z" fill="#00AB4F"/>
</g>
<defs>
<clipPath id="clip0_2090_19881">
<rect width="35" height="35" fill="white"/>
</clipPath>
</defs>
</svg>
