<svg width="36" height="35" viewBox="0 0 36 35" fill="none" xmlns="http://www.w3.org/2000/svg">
<path fill-rule="evenodd" clip-rule="evenodd" d="M1.56923 23.6232C2.23992 24.1218 2.5476 24.779 2.48451 25.6145H2.48645C2.42142 26.8133 2.87372 27.5127 3.99865 27.9378C4.69652 28.2022 5.14688 28.692 5.32256 29.4197C5.64286 30.7459 6.14272 31.2082 7.50059 31.3551C8.28872 31.4403 8.84876 31.8321 9.22147 32.5295C9.74948 33.5168 10.5599 33.9027 11.6363 33.6617C12.4788 33.4727 13.1796 33.6794 13.7814 34.3033C14.5181 35.0673 15.4469 35.2093 16.3583 34.6911C17.1358 34.2484 17.8851 34.2563 18.6606 34.698C19.5419 35.1995 20.4844 35.0692 21.1822 34.3415C21.8228 33.6735 22.5605 33.459 23.4554 33.6784C24.3823 33.9056 25.2792 33.504 25.7198 32.6421C26.1517 31.7978 26.8088 31.3855 27.7377 31.3277C28.6976 31.2679 29.4149 30.6665 29.6051 29.7214C29.7973 28.7674 30.3098 28.166 31.2251 27.8486C32.0938 27.547 32.6354 26.6547 32.5344 25.7448C32.4325 24.8299 32.7431 24.1335 33.4759 23.5939C34.3097 22.9807 34.5853 22.0591 34.2097 21.1002C33.8807 20.2598 33.9874 19.5144 34.5319 18.8033C35.157 17.9874 35.158 17.0139 34.5358 16.2029C33.9903 15.4928 33.8642 14.7425 34.2097 13.908C34.3611 13.5427 34.4125 13.1597 34.3378 12.761C34.2223 12.1499 33.8942 11.6954 33.3983 11.3398C32.7674 10.8873 32.4616 10.2575 32.517 9.48083C32.6053 8.24181 32.1743 7.5131 31.029 7.07136C30.2632 6.77556 29.809 6.2349 29.6469 5.42489C29.4372 4.37295 28.7656 3.7461 27.7086 3.66872C26.7923 3.60212 26.1478 3.19074 25.7227 2.3631C25.2733 1.48844 24.3833 1.09666 23.4263 1.32781C22.544 1.54133 21.817 1.31802 21.1861 0.662758C20.4834 -0.0659602 19.54 -0.202105 18.6655 0.298399C17.8773 0.74993 17.1183 0.744053 16.3302 0.294481C15.4566 -0.204064 14.5093 -0.0630218 13.8105 0.667655C13.1912 1.31508 12.4749 1.53839 11.6043 1.33467C10.5794 1.09568 9.7359 1.49236 9.23992 2.4346C8.8507 3.17409 8.26446 3.57469 7.43168 3.65305C6.17475 3.77156 5.60986 4.29557 5.32935 5.53949C5.16338 6.27408 4.72466 6.77752 4.03651 7.05079C2.83587 7.52681 2.42724 8.14485 2.48839 9.45243C2.52527 10.2468 2.23118 10.8726 1.60223 11.3496C0.667537 12.0578 0.420033 12.8933 0.822834 13.9834C1.11304 14.7689 1.00919 15.4849 0.503505 16.1529C-0.165241 17.0364 -0.169124 17.96 0.499623 18.8415C1.01696 19.5232 1.1111 20.249 0.814099 21.0453C0.425857 22.0865 0.681126 22.9631 1.56923 23.6232ZM12.543 16.6909C12.3085 16.4686 12.0333 16.3432 11.6382 16.3423V16.3414C11.3831 16.3392 11.115 16.4478 10.8901 16.6516C10.7706 16.7599 10.654 16.8709 10.5373 16.9819C10.5023 17.0151 10.4673 17.0484 10.4322 17.0817C9.85588 17.6268 9.85684 18.2412 10.4341 18.7863C11.1232 19.4371 11.8123 20.0879 12.5015 20.7388C13.1906 21.3896 13.8798 22.0404 14.5688 22.6912C15.0008 23.0996 15.4079 23.101 15.84 22.693C16.7308 21.8519 17.6216 21.0106 18.5124 20.1694C19.4015 19.3298 20.2905 18.4902 21.1796 17.6508C21.4617 17.3844 21.7438 17.1181 22.0259 16.8517C22.877 16.0482 23.7281 15.2446 24.5787 14.4408C25.1392 13.9111 25.1407 13.2867 24.585 12.7593C24.4627 12.6434 24.3399 12.5275 24.2172 12.412C23.6312 11.8606 22.9839 11.8606 22.3985 12.4134C21.9277 12.858 21.4569 13.3025 20.9861 13.7471C19.1019 15.5263 17.2177 17.3054 15.336 19.0869C15.2324 19.1847 15.1835 19.1915 15.0766 19.0892C14.527 18.564 13.9739 18.0421 13.4208 17.5202C13.128 17.244 12.8352 16.9677 12.543 16.6909Z" fill="#79798A"/>
</svg>
