<svg width="33" height="33" viewBox="0 0 33 33" fill="none" xmlns="http://www.w3.org/2000/svg">
<g clip-path="url(#clip0_18_607)">
<path d="M29.2789 0C20.7606 0 12.2423 0 3.72409 0C1.4796 0 0 1.4855 0 3.73886C0 12.2443 0 20.7508 0 29.2562C0 31.5253 1.4796 32.999 3.75658 32.999C7.99159 32.999 12.2256 32.999 16.4606 32.999C20.6956 32.999 25.0035 32.999 29.2749 32.999C31.5066 32.999 32.998 31.5165 32.999 29.2966C33 20.7665 33 12.2355 32.999 3.70539C32.999 1.48255 31.5096 0 29.2789 0ZM30.6423 24.2642C28.9697 22.5907 27.3651 20.9841 25.7595 19.3795C25.099 18.7189 24.593 18.6825 23.8527 19.2377C22.6064 20.1719 21.3562 21.0992 20.1197 22.0463C19.9071 22.2087 19.7988 22.188 19.6098 22.0177C17.7089 20.3147 15.8001 18.6214 13.8903 16.9282C13.2445 16.3563 12.7424 16.3494 12.0602 16.8948C8.91892 19.407 5.77761 21.9203 2.6363 24.4335C2.56345 24.4926 2.48765 24.5477 2.35869 24.6452V24.2396C2.35869 17.4037 2.35869 10.5678 2.35869 3.73197C2.35869 2.78987 2.7879 2.35672 3.72114 2.35672C12.2384 2.35672 20.7557 2.35672 29.272 2.35672C30.2101 2.35672 30.6433 2.7879 30.6433 3.72409C30.6433 10.4251 30.6433 17.1251 30.6433 23.8261V24.2632L30.6423 24.2642Z" fill="#868686"/>
<path d="M21.6624 23.8253C22.6094 23.1155 23.5446 22.4205 24.471 21.7147C24.6098 21.6093 24.6826 21.6271 24.7978 21.7422C26.6948 23.6461 28.5947 25.548 30.4986 27.445C30.603 27.5494 30.6473 27.6508 30.6453 27.7975C30.6384 28.3615 30.6502 28.9266 30.6394 29.4917C30.6266 30.1424 30.1452 30.6198 29.4955 30.6415C29.4098 30.6444 29.3232 30.6415 29.2376 30.6415C20.7439 30.6415 12.2503 30.6415 3.75663 30.6415C2.77318 30.6415 2.35086 30.2211 2.35972 29.2288C2.36465 28.7031 2.18745 28.1046 2.42371 27.6724C2.6521 27.255 3.18861 27.006 3.59124 26.6841C6.59867 24.2781 9.60905 21.8761 12.6096 19.4603C12.8557 19.2625 12.9906 19.2644 13.2268 19.4751C16.3839 22.2965 19.5498 25.107 22.7157 27.9176C23.4432 28.5633 24.4651 28.2975 24.7043 27.4027C24.8352 26.9154 24.6738 26.5108 24.3036 26.181C23.5151 25.4791 22.7256 24.7792 21.937 24.0773C21.8475 23.9976 21.7608 23.9149 21.6614 23.8233L21.6624 23.8253Z" fill="#868686"/>
<path d="M22.4114 4.71389C24.9955 4.72078 27.1071 6.84223 27.1052 9.42832C27.1032 12.0321 24.9778 14.1487 22.372 14.1418C19.7751 14.1339 17.6655 11.9987 17.6783 9.38894C17.6901 6.81072 19.8204 4.70602 22.4114 4.71291V4.71389Z" fill="#868686"/>
<path d="M24.7484 9.43391C24.7464 10.7324 23.6793 11.7906 22.3779 11.7847C21.0804 11.7788 20.0271 10.7078 20.0369 9.40438C20.0468 8.12265 21.1041 7.07424 22.3887 7.07227C23.6901 7.0703 24.7504 8.1325 24.7484 9.43293V9.43391Z" fill="#868686"/>
</g>
<defs>
<clipPath id="clip0_18_607">
<rect width="33" height="33" fill="white"/>
</clipPath>
</defs>
</svg>
