<?xml version="1.0" encoding="utf-8"?>
<!-- Generator: Adobe Illustrator 26.2.1, SVG Export Plug-In . SVG Version: 6.00 Build 0)  -->
<svg version="1.1" id="Layer_1" xmlns="http://www.w3.org/2000/svg" xmlns:xlink="http://www.w3.org/1999/xlink" x="0px" y="0px"
	 viewBox="0 0 148.3 148.6" style="enable-background:new 0 0 148.3 148.6;" xml:space="preserve">
<style type="text/css">
	.st0{fill:#FFFFFF;}
</style>
<path class="st0" d="M144,55.3c-0.2-0.7-0.4-1-1.2-1c-1.9,0.1-3.8,0-5.7,0c-2.2,0-4.4,0-6.6,0c9.6,29.8-4.4,58.4-27.8,71.4
	C81.6,137.5,53,136,32.6,116.5c-17.9-17.1-23.8-44-12.9-67.8c5.5-12,14.2-21.3,25.8-27.5c15.2-8.2,31.1-9.3,47.6-4.1
	c0-4.2,0-8.3,0-12.4c0-0.8-0.4-0.9-1-1.1C81,0.7,69.7,0.4,58.3,2.9C29.1,9.3,6.6,33.6,2.4,63.1c-0.2,1.5-0.1,3-0.8,4.5
	c0,0.5,0,0.9,0,1.4c0,0.2,0,0.4,0,0.6c0,0.4,0,0.8,0,1.1c0,1.8,0,3.6,0,5.4c0,0.3,0,0.6,0,0.8c0,0.2,0,0.4,0,0.6c0,0.2,0,0.4,0,0.6
	c0,0.5,0,0.9,0,1.4c0.3,1.9,0.2,3.8,0.6,5.7c3,17.3,11.1,31.8,24.3,43.3c10.3,8.9,22.2,14.5,35.6,16.8c2,0.3,4,0.3,6,0.6
	c0.4,0,0.8,0,1.1,0c0.2,0,0.4,0,0.6,0c0.2,0,0.4,0,0.6,0c0.4,0,0.8,0,1.1,0c1.7,0,3.4,0,5.1,0c0.4,0,0.8,0,1.1,0c0.2,0,0.4,0,0.6,0
	c0.2,0,0.4,0,0.6,0s0.4,0,0.6,0c0.1-0.3,0.3-0.3,0.6-0.3c2.2-0.1,4.3-0.4,6.4-0.8c21.6-4,38.1-15.4,49.6-34
	c6.1-9.8,9.3-20.6,10.2-32.1C146.7,70.8,145.9,63,144,55.3z"/>
<path class="st0" d="M59.9,73.6c0,7.7,0,15.4,0,23.2c0,1.2-0.3,1.5-1.5,1.4c-3.2-0.1-6.4-0.1-9.6,0c-1.3,0.1-1.5-0.4-1.5-1.6
	c0-12,0-24,0.1-36c0-1.5-0.4-1.9-1.9-1.8c-2,0.1-4,0-6.1,0c-0.8,0-1.2-0.1-1.2-1.1c0.1-2.6,0.1-5.3,0-7.9c0-0.7,0.1-1.1,1-1.1
	c6.5,0,13.1,0,19.6,0c1,0,1,0.5,1,1.2C59.9,57.9,59.9,65.7,59.9,73.6z"/>
<path class="st0" d="M110,30.6c-2,0-4,0-5.9,0c-0.7,0-1-0.2-1-0.9c0-2.7,0-5.4,0-8c0-0.8,0.2-1,1-1c3.9,0,7.7,0,11.6,0
	c1,0,1.3-0.2,1.3-1.2c-0.1-3.9,0-7.7,0-11.6c0-0.8,0.2-1.1,1.1-1.1c2.6,0.1,5.3,0.1,7.9,0c0.8,0,1,0.2,1,1c0,3.9,0,7.8,0,11.7
	c0,0.9,0.3,1.2,1.2,1.2c3.9,0,7.7,0,11.6,0c0.9,0,1.2,0.3,1.2,1.2c-0.1,2.6-0.1,5.2,0,7.8c0,0.9-0.3,1.1-1.1,1.1
	c-3.9,0-7.7,0-11.6,0c-1,0-1.2,0.3-1.2,1.3c0.1,3.9,0,7.7,0,11.6c0,0.9-0.2,1.1-1.1,1.1c-2.6-0.1-5.2-0.1-7.8,0
	c-1,0-1.1-0.3-1.1-1.2c0-3.9,0-7.7,0-11.6c0-1-0.3-1.2-1.2-1.1C113.9,30.6,111.9,30.6,110,30.6z"/>
<path class="st0" d="M106.2,75.6c-1.4-1.7-3.3-2.8-5.3-3.8c0.2-0.2,0.3-0.3,0.4-0.3c4.1-2.6,6.1-6.4,5.6-11.2
	c-0.5-5.1-3.5-8.4-8.2-10.2c-6.4-2.4-12.9-2.3-19.3,0.1C74.1,52.3,71,57.5,72,63c0.7,4,3.1,6.6,6.6,8.8c-0.6,0.3-1.1,0.5-1.5,0.7
	c-4.8,2.6-7.8,6.5-7.8,12c0,5.4,2.9,9.2,7.6,11.6c3,1.6,6.3,2.2,9.6,2.4c5.5,0.4,10.9,0,15.9-2.7C110.3,91.7,112.1,82.3,106.2,75.6z
	 M86.2,57c2.3-0.7,4.6-0.7,6.9,0.2c2.2,0.8,3.5,2.7,3.4,5.2c0,2.4-1.3,4.1-3.6,4.9c-1.3,0.4-2.6,0.5-3.8,0.5c-1-0.1-1.9-0.1-2.8-0.4
	c-2.7-0.8-4-2.4-4.1-5C82.3,59.7,83.6,57.8,86.2,57z M93.9,88.9c-3,1.1-6.1,1.1-9.1-0.1c-2.5-0.9-3.8-3-3.7-5.7
	c0-2.6,1.4-4.6,3.8-5.6c1.5-0.6,3-0.7,4.6-0.7c1.5,0.1,3,0.2,4.4,0.7c2.6,1,4,3,4,5.7C97.9,86,96.5,88,93.9,88.9z"/>
</svg>
