<svg width="200" height="199" viewBox="0 0 200 199" fill="none" xmlns="http://www.w3.org/2000/svg">
<ellipse cx="99.5" cy="100" rx="95.5" ry="95" fill="#C4C4C4"/>
<path fill-rule="evenodd" clip-rule="evenodd" d="M104.699 0.358658C105.189 0.335221 105.679 0.311783 106.169 0.296158C108.144 0.229752 110.109 0.292252 112.009 1.03053L112.029 1.03835L113.449 1.17897C128.82 2.98952 142.74 8.61842 155.49 17.259C162.929 22.3098 169.72 28.1399 175.39 35.1399C197.679 62.6692 204.509 93.5794 194.868 127.759C190.839 142.06 183.699 154.839 173.46 165.759L173.419 165.779C171.158 168.802 168.304 171.202 165.451 173.601L163.88 174.929C163.503 175.249 163.13 175.574 162.759 175.9C149.118 187.429 133.55 194.72 115.829 197.32C115.036 197.544 114.24 197.74 113.435 197.89C111.878 198.181 110.3 198.308 108.689 198.169L103.939 198.65C81.9192 199.65 61.8489 193.96 43.6087 181.529C39.1302 178.48 34.8899 175.249 31.1888 171.32L31.1985 171.288L31.1692 171.3C30.2474 170.454 29.304 169.622 28.3802 168.788C-4.57099 135.538 -8.43037 84.0891 14.7298 47.759C15.2884 46.3294 16.0696 45.0286 17.22 43.97C17.2493 42.9602 18.0091 42.9895 18.6985 42.9192C18.6985 42.9251 18.7103 42.9231 18.7103 42.929C20.1399 39.3899 22.179 36.2883 25.179 33.8801L25.5071 33.3958C25.6673 33.1653 25.8294 32.9387 25.9954 32.7161C26.7708 31.6633 27.6087 30.6712 28.511 29.7395C29.6517 28.5598 30.8939 27.4758 32.2396 26.4895L32.2591 26.4993C46.3099 12.929 63.22 4.92897 82.3099 1.55983C83.0911 1.42116 83.8763 1.26491 84.6673 1.10671C87.8431 0.473893 91.0911 -0.174545 94.3899 0.339127C97.8294 -0.131576 101.269 -0.100326 104.699 0.358658ZM22.679 54.4798C22.7356 54.0696 22.7571 53.6692 22.7396 53.2864C25.1985 51.8157 26.6204 49.6887 26.6575 46.6926L26.679 46.6712L26.7493 46.6028C26.8528 46.4934 26.9329 46.3723 26.9876 46.2356C27.0071 46.1868 27.0228 46.136 27.0364 46.0813L27.0599 45.9602L26.9681 45.763L26.9075 45.6106L27.3177 45.1673L27.4153 45.2083L27.6341 45.2962C27.722 45.3274 27.8021 45.3489 27.8665 45.3469C27.9466 45.3469 27.9993 45.3118 28.0091 45.22C29.0774 44.3469 30.1146 43.4446 31.1146 42.509C32.0677 41.6165 32.9896 40.6946 33.8763 39.7415C35.9915 37.4719 37.9095 35.0266 39.6087 32.3801C39.7005 32.3919 39.7845 32.4133 39.8802 32.4192C40.9798 32.2688 41.7689 31.5501 42.6087 30.9192C56.0189 20.9192 70.679 13.8001 87.4485 11.5794C88.3685 11.4602 89.2884 11.3001 89.7786 10.3391C89.7649 10.2239 89.7435 10.1204 89.7142 10.0266L89.679 9.93092L89.6536 9.87624L89.7396 9.89967L90.2747 9.87038C90.5872 10.1204 90.9271 10.3157 91.2884 10.4661C91.5911 10.593 91.9095 10.6887 92.2396 10.759C96.9095 11.1887 101.589 11.1692 106.269 10.7493C106.65 10.6848 107.015 10.5774 107.372 10.4505C107.722 10.3274 108.064 10.1829 108.404 10.0403L108.775 9.88405L109.329 9.9192L109.464 9.89772L109.419 9.98952C109.384 10.0715 109.353 10.1653 109.329 10.2688C110.24 11.8489 111.689 11.5696 113.118 11.3489C113.599 11.1165 114.079 10.8938 114.564 10.6809L114.868 10.72L114.908 10.7102L114.88 10.759C115.236 11.8333 115.927 12.2766 116.72 12.4993C116.988 12.5735 117.267 12.6223 117.548 12.6614L118.064 12.7278C118.445 12.7727 118.82 12.8176 119.169 12.8997C133.89 16.3294 147.159 22.8294 158.359 32.8587C173.81 46.6985 183.449 64.0188 187.099 84.5501C187.14 84.7825 187.167 85.0227 187.195 85.2649C187.318 86.3176 187.441 87.3997 188.699 87.9192C188.777 87.9075 188.843 87.888 188.902 87.8606L188.88 87.9798L188.927 88.3997L188.9 88.4387C188.449 89.0891 188.199 89.8196 188.06 90.5794C187.868 93.4719 187.771 96.3665 187.781 99.263C187.788 101.984 187.89 104.706 188.099 107.429C188.15 108.152 188.454 108.812 188.759 109.472L188.974 109.947L188.919 110.56L188.929 110.579C187.279 111.025 187.189 112.304 187.103 113.519L187.07 113.972L187.046 114.189L187.025 114.359L186.999 114.499C183.81 132.019 176.249 147.339 164.038 160.349C163.898 160.501 163.743 160.652 163.589 160.802C162.894 161.482 162.167 162.193 162.413 163.22C161.933 162.673 162.009 161.97 162.085 161.275C162.103 161.105 162.12 160.935 162.13 160.769C162.279 157.99 162.46 155.189 162.159 152.439C161.288 144.4 159.109 136.868 152.659 131.3L152.451 131.261L152.179 131.204L151.802 131.111L151.591 131.052C150.908 129.991 150.12 129.036 149.21 128.206C148.597 127.646 147.929 127.142 147.201 126.699C147.158 126.532 147.118 126.363 147.085 126.187C147.052 126.015 147.023 125.839 146.999 125.659C140.159 118.999 131.829 115.419 122.529 113.849C121.49 113.669 120.419 113.919 119.429 114.32C116.99 115.296 114.486 116.083 111.98 116.87C110.458 117.349 108.937 117.827 107.429 118.349C107.068 118.607 106.988 118.958 106.945 119.325L106.935 119.407L106.839 119.359L105.396 119.509L105.345 119.472L105.187 119.355C105.042 119.249 104.896 119.15 104.74 119.07C104.409 118.9 104.05 118.749 103.679 118.659C100.48 118.24 97.2786 118.22 94.0794 118.73C93.5423 118.833 93.1028 119.138 92.6556 119.417L92.2591 119.368C92.1946 119.406 92.1243 119.435 92.0501 119.452C92.095 119.384 92.1341 119.304 92.1692 119.21C91.431 118.505 90.6126 118.001 89.7474 117.613C88.5618 117.079 87.2864 116.765 86.011 116.45L85.9817 116.445C84.5189 116.085 83.054 115.726 81.72 115.038C78.7298 113.49 75.6595 113.64 72.47 114.519C60.9896 117.689 51.7103 124.009 44.2298 133.279C37.6185 141.47 36.1497 150.839 36.9603 160.88C37.0384 161.919 37.1692 163.038 38.4798 163.39L38.6185 163.259L38.6087 163.4C38.513 163.531 38.4817 163.654 38.5189 163.773L38.3099 163.9L37.9017 164.163L35.6224 162.822C35.5325 162.415 35.4388 162.013 35.22 161.72C35.0384 161.359 34.8587 161.009 34.6087 160.699C24.3899 148.038 16.1087 134.368 12.6302 118.22C12.429 117.329 12.22 116.38 11.0989 116.118L10.9935 116.175L11.0189 116.038L10.9524 115.642L11.0071 115.546L11.1302 115.335L11.2864 115.058C11.4739 114.702 11.6282 114.333 11.679 113.919C11.761 113.495 11.7806 113.074 11.7669 112.652L11.7552 112.4L11.7396 112.165C11.7142 111.888 11.681 111.611 11.6478 111.331V111.308V111.284V111.267V111.249V111.232V111.214L11.5989 110.769C10.7298 102.46 10.6497 94.1594 11.8997 85.8684C13.5794 74.7493 17.6399 64.4485 22.679 54.4798ZM116.519 10.0286C116.97 9.88991 116.07 9.59889 116.499 9.90944L116.308 9.9778L116.519 10.0286ZM109.999 9.261L110.273 9.35085C110.189 9.24733 110.095 9.2317 109.999 9.261ZM90.2103 120.019C90.2884 119.997 90.3685 119.98 90.4485 119.968L90.3274 119.97L90.2103 120.019ZM65.7493 72.6184C67.1185 59.2883 79.0286 47.0501 92.8001 44.8489C97.3001 43.6399 101.8 43.6594 106.3 44.8489C119.349 46.5286 132.288 59.8801 133.32 72.6301L133.509 73.9192C134.439 77.2102 134.439 80.4798 133.368 83.7395C133.019 87.6516 132.431 91.4719 129.509 94.4387C128.73 98.7786 125.57 101.56 122.55 104.189C108.929 116.038 91.0384 115.72 78.6087 105.839C68.2981 97.6458 63.2474 86.8274 65.6653 73.3215L65.679 73.2493C65.4993 73.009 65.5286 72.8001 65.7493 72.6184ZM66.2415 75.8274L66.2142 75.8919C66.2415 76.0501 66.2806 76.2141 66.3392 76.3801L66.3001 76.2083C66.2747 76.0794 66.2571 75.9524 66.2415 75.8274Z" fill="#283235"/>
</svg>
