<svg width="35" height="35" viewBox="0 0 35 35" fill="none" xmlns="http://www.w3.org/2000/svg">
<g clip-path="url(#clip0_2109_23060)">
<path d="M0 15.9995C0.142109 15.8128 0.128412 15.5773 0.187482 15.3666C0.73366 13.4263 2.528 11.9551 4.53893 11.9166C6.89486 11.8712 9.24737 11.8986 11.6084 11.9012C12.0519 11.9012 12.3566 12.1889 12.3626 12.5734C12.3695 12.9793 12.0485 13.2636 11.5579 13.2644C9.36123 13.2644 7.16396 13.2644 4.96612 13.2644C2.84219 13.2644 1.37058 14.7415 1.37058 16.8695C1.37058 20.2519 1.37058 23.634 1.37058 27.0159C1.37058 29.1447 2.8439 30.6218 4.96612 30.6235C6.30931 30.6235 7.65249 30.6304 8.99568 30.6192C9.36637 30.6192 9.61891 30.74 9.87145 31.0286C10.3568 31.5817 10.9065 32.0793 11.4817 32.6555C11.4817 32.2274 11.4817 31.8635 11.4817 31.4952C11.4817 30.8744 11.7309 30.6278 12.3549 30.6278C14.6886 30.6278 17.0226 30.6278 19.3568 30.6278C21.4816 30.6278 22.9575 29.1507 22.9592 27.0253C22.9592 25.591 22.9592 24.1558 22.9592 22.7206C22.9555 22.5845 22.9687 22.4485 22.9986 22.3156C23.0342 22.1705 23.1184 22.0419 23.2373 21.9514C23.3561 21.8608 23.5024 21.8138 23.6518 21.8181C23.9634 21.8386 24.1894 21.9953 24.281 22.3045C24.3104 22.4139 24.3245 22.5269 24.3229 22.6401C24.3229 24.155 24.3341 25.6698 24.3229 27.1846C24.3041 29.4906 22.8051 31.3514 20.5562 31.8789C20.1671 31.9637 19.7695 32.003 19.3714 31.9962C17.2988 31.9962 15.2271 31.9962 13.1545 31.9885C12.8977 31.9885 12.8301 32.0459 12.8395 32.3027C12.8609 32.8945 12.8266 33.4879 12.8523 34.0787C12.8694 34.4975 12.7325 34.8015 12.3669 35.0018H11.9569C11.7078 34.9229 11.4837 34.78 11.3071 34.5874C10.6608 33.9323 9.98274 33.3029 9.36465 32.6239C8.98541 32.206 8.5762 32.0544 8.02146 32.075C6.97705 32.1135 5.93006 32.0861 4.88393 32.0861C2.72404 32.0861 0.915148 30.8153 0.175495 28.7885C0.0693414 28.4973 0.0830387 28.189 0.00427935 27.8945L0 15.9995Z" fill="white"/>
<path d="M11.5779 22.5613H4.64875C4.54656 22.5649 4.44424 22.5629 4.34227 22.5553C3.96645 22.5125 3.69678 22.2308 3.69336 21.884C3.69453 21.7108 3.76061 21.5443 3.87854 21.4174C3.99646 21.2906 4.15766 21.2126 4.33028 21.1989C4.43218 21.1899 4.53454 21.1873 4.63676 21.1912H18.5977C19.1439 21.1912 19.4769 21.4601 19.4684 21.8857C19.4598 22.3113 19.1371 22.557 18.6123 22.557C16.2666 22.561 13.9218 22.5625 11.5779 22.5613Z" fill="white"/>
<path d="M10.2144 26.3923H4.64984C4.5356 26.3967 4.42119 26.3933 4.30741 26.382C4.14178 26.3631 3.98859 26.2848 3.8761 26.1618C3.76361 26.0387 3.6994 25.8791 3.69531 25.7124C3.69836 25.5457 3.76143 25.3857 3.87292 25.2617C3.98441 25.1378 4.13686 25.0582 4.30228 25.0376C4.39261 25.027 4.48361 25.0233 4.57451 25.0265H15.9159C16.3722 25.0265 16.6427 25.1806 16.742 25.4889C16.8909 25.9522 16.581 26.3735 16.0571 26.3889C15.5563 26.4043 15.0555 26.3932 14.5538 26.3932L10.2144 26.3923Z" fill="white"/>
<path d="M9.36557 17.3669C10.981 17.3669 12.5964 17.3669 14.2118 17.3669C14.8162 17.3669 15.1809 17.8251 14.9686 18.3089C14.8342 18.6163 14.5765 18.7328 14.2546 18.7328H4.53128C4.01764 18.7268 3.68805 18.4528 3.69746 18.0366C3.70688 17.6204 4.02449 17.3678 4.52273 17.3669C6.13672 17.3647 7.751 17.3647 9.36557 17.3669Z" fill="white"/>
<path d="M19.4691 25.6933C19.4651 25.8713 19.3943 26.0412 19.2707 26.1692C19.1471 26.2973 18.9798 26.3741 18.8022 26.3844C18.6242 26.3807 18.4541 26.31 18.326 26.1863C18.1979 26.0626 18.1212 25.8951 18.1113 25.7173C18.1149 25.5391 18.1856 25.3689 18.3092 25.2406C18.4329 25.1124 18.6004 25.0355 18.7782 25.0254C18.9564 25.029 19.1266 25.0999 19.2547 25.2237C19.3828 25.3476 19.4594 25.5153 19.4691 25.6933Z" fill="white"/>
<path d="M34.2581 6.26093C33.2197 3.65175 31.3543 1.8201 28.7621 0.736873C27.2956 0.123755 25.7572 -0.0440805 24.1273 0.0158612C21.6035 -0.110873 19.2416 0.51509 17.2007 2.1378C15.0126 3.87696 13.749 6.15218 13.4545 8.93519C13.2114 11.2472 13.7336 13.388 15.0006 15.337C16.3361 17.3921 18.1852 18.8024 20.5403 19.4601C22.7789 20.0843 25.0621 20.0218 27.3358 19.6014C27.4091 19.5798 27.487 19.5798 27.5603 19.6015C27.6335 19.6233 27.6989 19.6658 27.7485 19.7238C28.501 20.4842 29.2612 21.2378 30.0171 21.9956C30.2594 22.2397 30.5307 22.3835 30.8732 22.2405C31.2156 22.0975 31.3012 21.8047 31.2961 21.4587C31.2892 20.3087 31.3012 19.1578 31.2867 18.0078C31.2783 17.8976 31.2974 17.787 31.3422 17.686C31.387 17.585 31.4562 17.4967 31.5435 17.4289C32.5576 16.5769 33.3788 15.5188 33.9525 14.3248C35.2366 11.6857 35.3385 8.97714 34.2581 6.26093ZM33.5433 10.9826C33.2865 13.108 32.3713 14.9216 30.7311 16.308C30.1318 16.8132 29.8322 17.321 29.9144 18.1063C29.9769 18.698 29.9263 19.3051 29.9263 19.9747C29.3947 19.4421 28.9042 18.9729 28.4402 18.4796C28.1337 18.1542 27.8101 18.0515 27.3709 18.1808C25.9156 18.6089 24.4217 18.537 22.9322 18.4822C21.1019 18.4145 19.4505 17.8151 18.0388 16.6591C15.5099 14.586 14.3979 11.898 14.885 8.65175C15.3422 5.60499 17.0654 3.4471 19.8383 2.12752C20.6079 1.75617 21.4382 1.52671 22.2892 1.45018C23.6735 1.33115 25.0638 1.28491 26.4429 1.5067C28.614 1.85522 30.3895 2.9119 31.7507 4.62795C33.2274 6.48699 33.8249 8.62606 33.5433 10.9826Z" fill="white"/>
<path d="M23.7008 11.1929C23.7008 10.9883 23.7008 10.7836 23.7008 10.5781C23.7068 9.80742 24.0056 9.39125 24.7367 9.17289C25.2383 9.02303 25.6099 8.7336 25.7939 8.24208C26.0182 7.64266 25.9103 7.09034 25.4669 6.63221C25.0235 6.17409 24.4901 6.04564 23.902 6.24687C23.3139 6.44811 22.9603 6.86342 22.8747 7.49024C22.861 7.59214 22.8439 7.69318 22.8242 7.79337C22.7471 8.17529 22.4706 8.3868 22.0957 8.35426C21.9292 8.34218 21.7739 8.26618 21.6622 8.14217C21.5505 8.01816 21.4911 7.85574 21.4964 7.6889C21.5221 6.56371 22.0101 5.67486 23.01 5.15765C25.0577 4.09582 27.322 5.55497 27.2561 7.86273C27.2253 8.9571 26.4368 10.0352 25.3727 10.3871C25.121 10.4728 25.0389 10.5798 25.056 10.8384C25.0808 11.2015 25.0663 11.5671 25.062 11.9319C25.0551 12.4457 24.7778 12.7797 24.3634 12.772C23.9491 12.7643 23.7017 12.4474 23.6965 11.9448C23.6991 11.6947 23.7008 11.4438 23.7008 11.1929Z" fill="white"/>
<path d="M25.0632 14.8065C25.0532 14.9888 24.9717 15.1599 24.8365 15.2825C24.7012 15.4052 24.523 15.4695 24.3406 15.4616C24.2529 15.4572 24.167 15.4355 24.0877 15.3978C24.0084 15.3601 23.9373 15.3072 23.8785 15.2419C23.8197 15.1767 23.7744 15.1005 23.7452 15.0177C23.7159 14.9349 23.7033 14.8471 23.708 14.7594C23.7173 14.5825 23.7952 14.4163 23.9252 14.296C24.0552 14.1758 24.227 14.111 24.404 14.1155C24.5805 14.127 24.7462 14.2045 24.8682 14.3324C24.9903 14.4604 25.0599 14.6296 25.0632 14.8065Z" fill="white"/>
</g>
<defs>
<clipPath id="clip0_2109_23060">
<rect width="35" height="35" fill="white"/>
</clipPath>
</defs>
</svg>
