<svg width="18" height="18" viewBox="0 0 18 18" fill="none" xmlns="http://www.w3.org/2000/svg">
<path d="M17.9967 12.4783C17.9202 12.6345 17.7894 12.7137 17.6281 12.7728C15.1633 13.6781 12.7008 14.5881 10.2369 15.4963C10.1947 15.5118 10.1506 15.5225 10.1028 15.5371C10.0925 15.4625 10.1492 15.4405 10.182 15.4072C11.1334 14.4536 12.0861 13.5018 13.0374 12.5482C13.1064 12.4793 13.1434 12.4296 13.2259 12.5501C13.3188 12.686 13.4707 12.7207 13.6334 12.6607C14.2523 12.4333 14.8726 12.2102 15.4896 11.9776C15.7062 11.896 15.7939 11.693 15.7208 11.4966C15.6434 11.2894 15.4455 11.2007 15.2196 11.2818C14.8023 11.4319 14.3868 11.5875 13.9705 11.7394C13.9278 11.7549 13.888 11.7877 13.842 11.7727C14.8032 10.8111 15.7663 9.84859 16.7443 8.87012C17.1607 10.0118 17.5784 11.1571 17.9967 12.3025V12.4783Z" fill="white"/>
<path d="M3.26626 17.9971C3.11153 17.9193 3.03088 17.7908 2.97321 17.6281C2.65016 16.7214 2.31821 15.8179 1.98953 14.9135C1.98203 14.8929 1.97499 14.8723 1.97687 14.8779C2.85553 15.757 3.74919 16.6515 4.64707 17.5503C4.26448 17.6924 3.85328 17.8447 3.44208 17.9971H3.26626Z" fill="white"/>
<path d="M0 9.27968C0.0684547 9.12684 0.185203 9.04057 0.344618 8.98431C0.843962 8.80897 1.33862 8.61955 1.83656 8.43858C1.86703 8.42733 1.9097 8.37763 1.94111 8.43624C1.96409 8.47937 1.91439 8.49297 1.89376 8.5136C1.36628 9.04339 0.837398 9.57177 0.308515 10.1002C0.296793 10.1119 0.279445 10.118 0.260691 10.1288C0.150975 9.92294 0.120499 9.68805 0 9.49066V9.27968H0Z" fill="white"/>
<path d="M17.7912 5.93837C15.8796 4.0283 13.9685 2.1173 12.0588 0.205822C11.9664 0.11346 11.8666 0.0370386 11.74 0H11.529C11.4212 0.0164095 11.3405 0.0745461 11.2641 0.150968C7.56097 3.85671 3.85691 7.56104 0.150975 11.2644C0.07455 11.3409 0.0164104 11.422 0 11.5293V11.7403C0.0370406 11.8669 0.112997 11.9668 0.205833 12.0591C2.11741 13.9692 4.02851 15.8802 5.93821 17.7917C6.03058 17.884 6.13045 17.9605 6.25704 17.9975H6.46803C6.57587 17.9806 6.65652 17.923 6.73294 17.8465C10.4361 14.1408 14.1406 10.4365 17.8461 6.73353C17.9225 6.65711 17.9806 6.576 17.997 6.46863V6.25766C17.96 6.13107 17.884 6.0312 17.7912 5.93884V5.93837ZM4.34078 10.4383C3.87473 10.9062 3.40679 11.3718 2.94074 11.8392C2.85119 11.9288 2.75601 12.0019 2.66505 11.9949C2.46531 11.9911 2.35278 11.9175 2.28714 11.7792C2.21775 11.6325 2.23978 11.4914 2.3509 11.3741C2.51126 11.2044 2.67864 11.0413 2.84368 10.8758C3.1658 10.5532 3.48744 10.2306 3.81049 9.90901C4.00648 9.71397 4.21606 9.69522 4.38204 9.85322C4.55036 10.014 4.5363 10.2419 4.34125 10.4379L4.34078 10.4383ZM9.68306 11.2537C9.19731 11.2396 8.66046 10.9972 8.17753 10.6277C7.49907 10.1087 7.00395 9.46033 6.80609 8.61266C6.73154 8.29337 6.7306 7.97409 6.83563 7.6609C7.04474 7.03594 7.67162 6.67024 8.36929 6.76682C9.35251 6.90278 10.0788 7.45086 10.6574 8.22023C11.0076 8.68627 11.2392 9.20481 11.2528 9.80071C11.273 10.676 10.6963 11.2597 9.68306 11.2537V11.2537ZM15.6883 6.56991C15.6607 6.61398 15.6236 6.65289 15.5866 6.68946C15.1201 7.1569 14.6535 7.62387 14.1856 8.08943C13.9901 8.284 13.7796 8.30181 13.614 8.14334C13.4462 7.983 13.4617 7.75514 13.6572 7.5587C14.1232 7.09079 14.5912 6.62523 15.0577 6.15779C15.1472 6.06824 15.2415 5.99417 15.3564 6.00448C15.5195 6.00307 15.625 6.07059 15.6949 6.18827C15.7694 6.31392 15.7671 6.44519 15.6888 6.56944L15.6883 6.56991Z" fill="white"/>
</svg>
