<svg width="22" height="23" viewBox="0 0 22 23" fill="none" xmlns="http://www.w3.org/2000/svg">
<g clip-path="url(#clip0_2109_24781)">
<path d="M15.1334 0C15.0393 0.0660281 14.9457 0.0714304 14.8516 0H15.1334Z" fill="#1A1A1A"/>
<path d="M21.105 5.2142C20.9022 2.72134 18.9856 0.635447 16.4369 0.124629C16.221 0.0814108 15.9943 0.0904147 15.7878 0.000976562H15.1299C15.0357 0.0375922 14.9422 0.0375922 14.848 0.000976562H14.6133C14.5963 0.0477965 14.5536 0.0387927 14.5166 0.0423942C11.2215 0.402548 8.88429 3.29938 9.34256 6.45553C9.7958 9.57746 12.8888 11.772 16.1218 11.266C19.1953 10.7852 21.3448 8.17406 21.1037 5.2142H21.105ZM15.1795 10.1153C12.6151 10.1015 10.5479 8.11043 10.5535 5.65959C10.5592 3.19854 12.6477 1.20749 15.2178 1.21229C17.7797 1.2171 19.8808 3.23996 19.8626 5.6842C19.8444 8.14765 17.7502 10.1291 15.1795 10.1153Z" fill="white"/>
<path d="M20.7277 12.5477C19.4276 12.1179 18.1469 12.1834 16.8939 12.7278C16.1908 13.0333 15.4877 13.3377 14.7878 13.6504C14.6402 13.7164 14.5894 13.7068 14.5448 13.5393C14.332 12.7428 13.6176 12.0843 12.6132 12.1089C11.7142 12.1311 10.8134 12.0915 9.9138 12.0849C9.75497 12.0837 9.60431 12.0549 9.45239 12.0183C8.81709 11.8664 8.17112 11.8106 7.52013 11.8724C6.23949 11.9943 5.18359 12.5375 4.3449 13.4679C4.26768 13.5538 4.22311 13.585 4.10572 13.5039C3.81381 13.3028 3.49867 13.2968 3.1804 13.4649C2.27202 13.9451 1.36051 14.4199 0.453388 14.9025C0.0453406 15.1198 -0.100301 15.501 0.0698235 15.9152C0.970665 18.1007 1.87402 20.285 2.78114 22.4682C2.98328 22.955 3.49616 23.1368 3.97577 22.8889C4.90235 22.4099 5.82328 21.9195 6.74547 21.4327C6.96142 21.3187 7.11271 21.15 7.15289 20.9135C7.17549 20.7784 7.24266 20.755 7.37324 20.7562C8.09328 20.7628 8.81333 20.7592 9.53337 20.7592C10.0889 20.7592 10.6451 20.7484 11.2007 20.7616C12.013 20.7808 12.7551 20.578 13.4563 20.1902C15.9228 18.8264 18.3911 17.4638 20.8677 16.1162C21.4333 15.8083 21.7559 15.3545 21.9192 14.7801C22.2029 13.7818 21.7202 12.8749 20.727 12.5465L20.7277 12.5477ZM5.46609 21.0912C4.97141 21.3505 4.47485 21.605 3.98331 21.8691C3.75166 21.9934 3.78054 21.7797 3.74538 21.6956C3.0109 19.9357 2.28332 18.1727 1.55449 16.411C1.42893 16.1066 1.31468 15.7975 1.17406 15.5004C1.10312 15.3509 1.13137 15.2825 1.2789 15.2087C1.72461 14.9854 2.1697 14.7591 2.6016 14.5118C2.79432 14.4019 2.85773 14.4361 2.93557 14.6264C3.56396 16.1679 4.2024 17.7057 4.83832 19.2442C5.05302 19.7628 5.27022 20.2808 5.48555 20.7988C5.50815 20.8523 5.52824 20.9069 5.5659 21.0041C5.57595 21.036 5.51945 21.0636 5.46609 21.0912ZM20.808 14.7357C20.5406 14.9007 20.2619 15.0484 19.9875 15.2033C17.5562 16.5742 15.1217 17.941 12.6948 19.3192C12.1763 19.6139 11.6389 19.7706 11.0369 19.755C10.3093 19.7358 9.58108 19.7502 8.85288 19.7502C7.98782 19.7502 7.75052 19.746 6.88546 19.7538C6.72475 19.7556 6.46298 19.2904 6.40271 19.1379C5.87978 17.815 5.34807 16.4956 4.81133 15.1774C4.75483 15.0382 4.76299 14.9307 4.83393 14.8005C5.73226 13.154 6.71597 12.5033 8.68275 13.0075C8.91754 13.0675 9.15044 13.0964 9.3915 13.0982C10.4022 13.1072 11.4123 13.121 12.423 13.1348C12.7111 13.139 12.8379 13.298 12.8335 13.6402C12.8291 13.9751 12.7086 14.1168 12.4205 14.1174C11.4098 14.1186 10.3991 14.121 9.38836 14.1144C9.22828 14.1132 9.1655 14.1432 9.17053 14.3179C9.18371 14.7813 9.18057 15.2453 9.17178 15.7087C9.16927 15.8491 9.20631 15.8924 9.35446 15.8918C10.4424 15.8851 11.5303 15.8869 12.6182 15.8875C12.8888 15.8875 13.1493 15.8341 13.386 15.7111C14.7375 15.0064 16.1663 14.4655 17.5436 13.8167C18.0233 13.5904 18.5073 13.3941 19.044 13.3329C19.5468 13.2752 20.0352 13.3239 20.5167 13.4583C20.6831 13.5045 20.9066 13.5213 20.9279 13.7422C20.9505 13.9823 21.0183 14.606 20.8105 14.7351L20.808 14.7357Z" fill="white"/>
<path d="M13.8195 6.55715C14.1654 6.78765 14.5107 6.97313 14.9175 7.02475C14.9715 7.03135 15.0267 7.04336 15.0807 7.03916C15.296 7.02295 15.522 6.99774 15.5904 6.76064C15.6607 6.51693 15.4812 6.38488 15.2866 6.29064C15.0154 6.15978 14.7304 6.05534 14.4605 5.92268C13.6607 5.52891 13.3443 4.82901 13.6299 4.1003C13.7869 3.69933 14.0844 3.42382 14.4981 3.27255C14.6331 3.22333 14.6695 3.1561 14.6645 3.02705C14.6563 2.83436 14.5923 2.57325 14.6952 2.46521C14.8151 2.33915 15.0914 2.42799 15.2998 2.42619C15.834 2.42079 15.8422 2.42439 15.8302 2.925C15.8265 3.09007 15.8779 3.1579 16.0443 3.18791C16.2916 3.23233 16.5107 3.35118 16.7342 3.45863C16.856 3.51686 16.8843 3.57628 16.8284 3.70053C16.7141 3.95384 16.6112 4.21195 16.5189 4.47306C16.4706 4.60872 16.4341 4.64774 16.2835 4.5607C15.9746 4.38182 15.6432 4.24737 15.2684 4.26357C15.1058 4.27078 14.9463 4.29479 14.8986 4.47426C14.8522 4.64774 14.9784 4.73898 15.1146 4.805C15.4002 4.94186 15.6934 5.06371 15.979 5.20117C16.6206 5.5103 16.9991 5.98931 16.9608 6.69881C16.9251 7.36389 16.544 7.80628 15.9093 8.05419C15.8133 8.092 15.7825 8.13882 15.7875 8.23487C15.7957 8.40654 15.7844 8.57941 15.7919 8.75108C15.7963 8.85913 15.7756 8.91255 15.6425 8.90835C15.3456 8.89875 15.048 8.90055 14.7505 8.90835C14.6325 8.91135 14.5923 8.86874 14.6124 8.76669C14.6971 8.33691 14.5433 8.13582 14.0662 8.01397C13.3606 7.83389 13.3644 7.75886 13.6123 7.10818C13.6814 6.92691 13.7505 6.74623 13.8214 6.55835L13.8195 6.55715Z" fill="white"/>
</g>
<defs>
<clipPath id="clip0_2109_24781">
<rect width="22" height="23" fill="white"/>
</clipPath>
</defs>
</svg>
