<svg width="24" height="24" viewBox="0 0 24 24" fill="none" xmlns="http://www.w3.org/2000/svg">
<g clip-path="url(#clip0_2109_24789)">
<path d="M21.0328 4.17027C20.5468 4.69322 20.0874 5.20266 19.5962 5.68331C18.8359 6.42719 18.035 7.12348 17.2013 7.78334C16.961 7.97372 16.7418 7.97842 16.6067 7.79921C16.4768 7.62705 16.5268 7.41963 16.7559 7.23865C17.904 6.33142 18.9839 5.34956 19.9787 4.27603C20.3447 3.88118 20.6931 3.46928 21.0439 3.06032C21.1755 2.90696 21.3201 2.79238 21.5281 2.8764C21.7249 2.95631 21.7537 3.13376 21.7496 3.32532C21.7443 3.57504 21.7431 3.82536 21.7496 4.07508C21.7566 4.33538 21.9194 4.50284 22.1497 4.50108C22.3671 4.49932 22.5404 4.33479 22.5422 4.08977C22.5492 3.10556 22.5498 2.12076 22.5422 1.13655C22.5398 0.843936 22.3383 0.674711 22.0475 0.709966C21.0715 0.828071 20.0956 0.951464 19.1208 1.07956C18.87 1.11246 18.7225 1.30813 18.7513 1.53435C18.7783 1.74765 18.961 1.8916 19.209 1.86869C19.5274 1.83872 19.8441 1.79289 20.1614 1.74882C20.3547 1.72179 20.5416 1.70828 20.6591 1.90629C20.7778 2.10607 20.6738 2.25591 20.548 2.40986C17.666 5.94126 14.0913 8.54133 9.89735 10.2929C7.5054 11.2918 5.01768 11.9552 2.44065 12.2678C2.09987 12.3089 1.75732 12.3319 1.41536 12.3677C1.2485 12.3847 1.15214 12.4911 1.10161 12.6433C1.05225 12.7931 1.09926 12.9236 1.20149 13.0305C1.30666 13.141 1.44592 13.148 1.59163 13.1404C2.53701 13.0934 3.47064 12.9541 4.39781 12.7731C8.25102 12.0204 11.8316 10.5926 15.1113 8.42558C15.1695 8.3868 15.2271 8.34273 15.2917 8.31805C15.4733 8.24754 15.6343 8.28162 15.74 8.45319C15.8405 8.61654 15.8 8.76814 15.6625 8.8933C15.6166 8.93502 15.5632 8.96792 15.5109 9.00259C12.3657 11.0915 8.93611 12.5046 5.25271 13.3137C4.04704 13.5787 2.83197 13.775 1.59751 13.8478C0.994083 13.8831 0.502885 13.5205 0.393011 12.9388C0.290776 12.3959 0.633323 11.8442 1.17799 11.6926C1.48058 11.6085 1.79786 11.6256 2.10751 11.5921C4.58054 11.3265 6.96603 10.7078 9.26984 9.78408C13.1865 8.21405 16.5761 5.88309 19.3711 2.70776C19.397 2.67838 19.4205 2.64724 19.4528 2.60729C19.3747 2.545 19.2883 2.57556 19.2096 2.57673C18.5879 2.58202 18.0903 2.16366 18.0444 1.59311C17.9951 0.977318 18.4046 0.460829 19.0274 0.378567C20.0098 0.248122 20.9934 0.124729 21.9776 0.00897397C22.6861 -0.0738759 23.2408 0.425573 23.2461 1.15007C23.2537 2.08727 23.2484 3.02506 23.2479 3.96285C23.2479 4.64798 22.8654 5.13861 22.286 5.19972C21.6515 5.26671 21.1879 4.89594 21.0304 4.17086L21.0328 4.17027Z" fill="white"/>
<path d="M23.5094 23.2929C22.8848 23.3029 22.259 23.2876 21.6345 23.3017C21.4282 23.3064 21.3665 23.2606 21.3671 23.0414C21.3748 18.5417 21.373 14.0419 21.3724 9.54276C21.3724 9.12322 21.2649 9.01452 20.8477 9.01393C19.7308 9.01335 18.6132 9.01393 17.4963 9.01393C16.9928 9.01393 16.9134 9.09326 16.9134 9.59623C16.9134 14.0883 16.9123 18.5799 16.9175 23.072C16.9175 23.2559 16.8723 23.3046 16.6878 23.3023C15.954 23.2911 15.2189 23.29 14.4851 23.3023C14.2853 23.3058 14.2283 23.2641 14.2289 23.0526C14.2371 19.9278 14.2348 16.803 14.2342 13.6782C14.2342 13.2563 14.1313 13.1547 13.7089 13.1541C12.5837 13.1535 11.4591 13.1541 10.334 13.1541C9.84804 13.1541 9.76519 13.2375 9.76519 13.7287C9.76519 16.8377 9.76343 19.9472 9.76931 23.0561C9.76931 23.2418 9.73934 23.307 9.53428 23.3029C8.80042 23.2882 8.06539 23.287 7.33153 23.3029C7.11589 23.3076 7.08123 23.2418 7.08181 23.0438C7.08886 20.5442 7.08651 18.044 7.08593 15.5444C7.08593 15.1301 6.99016 15.0332 6.58063 15.0326C5.44781 15.032 4.315 15.0326 3.18219 15.0326C2.71097 15.0326 2.62694 15.1184 2.62694 15.5949C2.62694 18.0869 2.62518 20.5788 2.63106 23.0708C2.63106 23.2494 2.59345 23.3052 2.40543 23.3011C1.765 23.2882 1.12456 23.2982 0.483531 23.2947C0.284348 23.2935 0.103968 23.317 0.0240598 23.5338C-0.0576108 23.7547 0.0828157 23.8805 0.232643 23.9998H23.7667C23.8936 23.9704 23.9718 23.8922 24.0012 23.7653V23.5309C23.8878 23.3469 23.7232 23.2888 23.5094 23.2923V23.2929ZM6.04066 19.6563C6.04066 20.7962 6.03831 21.9356 6.0436 23.0755C6.04419 23.2412 6.02186 23.3052 5.8638 23.3023C5.15403 23.2905 4.44368 23.2941 3.73332 23.2999C3.61111 23.3011 3.55881 23.2835 3.5594 23.1113C3.56469 20.8021 3.56469 18.4923 3.5594 16.1831C3.5594 16.0156 3.60582 15.9892 3.73155 15.9904C4.44779 15.9974 5.16461 15.9986 5.88084 15.9892C6.01951 15.9874 6.04419 16.0391 6.0436 16.1919C6.03831 17.3465 6.04066 18.5011 6.04066 19.6563V19.6563ZM13.2623 23.1143C13.2623 23.2641 13.2265 23.3017 13.0972 23.3005C12.3463 23.2935 11.5949 23.2917 10.844 23.3017C10.6935 23.3035 10.6777 23.2394 10.6783 23.0931C10.6824 21.6371 10.6806 20.181 10.6806 18.7256C10.6806 17.2701 10.6835 15.844 10.6771 14.4033C10.6765 14.227 10.7141 14.1747 10.8722 14.1771C11.6101 14.1871 12.3481 14.1853 13.0861 14.1782C13.2242 14.1771 13.2623 14.2205 13.2623 14.3792C13.2582 17.2913 13.2582 20.2028 13.2623 23.1149V23.1143ZM20.1914 23.3023C19.5075 23.2905 18.823 23.2929 18.1391 23.3005C18.0104 23.3017 17.9628 23.2782 17.9628 23.0943C17.9681 18.7702 17.9675 14.4468 17.964 10.1227C17.964 9.96818 17.9887 9.91177 18.1238 9.91353C18.8201 9.92234 19.5169 9.92411 20.2132 9.91235C20.363 9.91 20.3794 9.97758 20.3789 10.1374C20.3747 12.2915 20.3765 14.4462 20.3765 16.6003C20.3765 18.7544 20.3742 20.909 20.38 23.0631C20.38 23.2535 20.3465 23.3046 20.1908 23.3023H20.1914Z" fill="white"/>
</g>
<defs>
<clipPath id="clip0_2109_24789">
<rect width="24" height="24" fill="white"/>
</clipPath>
</defs>
</svg>
