<svg width="24" height="24" viewBox="0 0 24 24" fill="none" xmlns="http://www.w3.org/2000/svg">
<path fill-rule="evenodd" clip-rule="evenodd" d="M1.07599 16.1994C1.53587 16.5413 1.74685 16.9919 1.70359 17.5649H1.70492C1.66033 18.387 1.97046 18.8665 2.74181 19.158C3.22032 19.3394 3.52913 19.6752 3.64959 20.1742C3.86921 21.0837 4.21196 21.4007 5.14303 21.5014C5.68344 21.5599 6.06745 21.8285 6.32301 22.3067C6.68506 22.9838 7.24077 23.2484 7.97884 23.0832C8.55652 22.9535 9.03703 23.0953 9.44966 23.5231C9.95479 24.047 10.5917 24.1444 11.2166 23.7891C11.7497 23.4855 12.2635 23.4909 12.7953 23.7938C13.3996 24.1377 14.0458 24.0483 14.5243 23.5493C14.9636 23.0912 15.4694 22.9441 16.083 23.0946C16.7185 23.2504 17.3335 22.975 17.6356 22.384C17.9318 21.805 18.3824 21.5222 19.0193 21.4826C19.6775 21.4416 20.1693 21.0292 20.2997 20.3811C20.4315 19.7269 20.7829 19.3145 21.4105 19.0969C22.0062 18.89 22.3775 18.2782 22.3083 17.6542C22.2384 17.0269 22.4514 16.5493 22.9539 16.1792C23.5256 15.7588 23.7146 15.1268 23.457 14.4692C23.2314 13.8929 23.3046 13.3818 23.678 12.8942C24.1066 12.3347 24.1072 11.6671 23.6806 11.1109C23.3066 10.624 23.2201 10.1095 23.457 9.53725C23.5608 9.28673 23.5961 9.02411 23.5449 8.75075C23.4657 8.33163 23.2407 8.01999 22.9006 7.77618C22.468 7.46587 22.2584 7.034 22.2963 6.50138C22.3569 5.65173 22.0614 5.15202 21.2761 4.84911C20.751 4.64627 20.4395 4.27552 20.3284 3.72006C20.1846 2.9987 19.7241 2.56884 18.9993 2.51578C18.371 2.47011 17.9291 2.18802 17.6376 1.62047C17.3295 1.02068 16.7192 0.752021 16.063 0.910532C15.458 1.05695 14.9596 0.903815 14.527 0.454479C14.0451 -0.0452315 13.3982 -0.138591 12.7986 0.204624C12.2582 0.514256 11.7377 0.510226 11.1973 0.201937C10.5984 -0.139935 9.9488 -0.0432165 9.46962 0.457837C9.04502 0.9018 8.55386 1.05494 7.95688 0.915233C7.25408 0.75135 6.67574 1.02337 6.33566 1.6695C6.06878 2.1766 5.6668 2.45131 5.09578 2.50504C4.23392 2.58631 3.84658 2.94564 3.65425 3.79864C3.54044 4.30238 3.23962 4.64761 2.76776 4.835C1.94451 5.16143 1.66432 5.58524 1.70625 6.4819C1.73154 7.02661 1.52988 7.4558 1.09862 7.78289C0.457719 8.2685 0.28801 8.84142 0.564204 9.58897C0.763196 10.1276 0.691985 10.6186 0.345245 11.0767C-0.113303 11.6825 -0.115965 12.3159 0.342583 12.9204C0.697309 13.3878 0.761865 13.8855 0.558214 14.4316C0.292003 15.1456 0.467037 15.7467 1.07599 16.1994ZM14.692 8.19133C15.0826 7.80081 15.7157 7.80081 16.1062 8.19133L16.2781 8.36322C16.6687 8.75375 16.6687 9.38691 16.2781 9.77744L14.0038 12.0517L16.5675 14.4242C16.9729 14.7993 16.9974 15.432 16.6223 15.8373L16.4572 16.0157C16.0821 16.4211 15.4494 16.4456 15.044 16.0705L12.4165 13.639L9.76181 16.2938C9.37129 16.6843 8.73812 16.6843 8.3476 16.2938L8.17571 16.1219C7.78518 15.7313 7.78518 15.0982 8.17571 14.7077L10.769 12.1144L8.2803 9.81133C7.87495 9.43622 7.85043 8.80353 8.22554 8.39818L8.39066 8.21976C8.76577 7.81441 9.39846 7.7899 9.80381 8.16501L12.3563 10.5271L14.692 8.19133Z" fill="#F93A3A"/>
</svg>
