<svg width="24" height="25" viewBox="0 0 24 25" fill="none" xmlns="http://www.w3.org/2000/svg">
<rect width="24" height="25" rx="12" fill="#00CE52"/>
<rect width="24" height="25" rx="12" fill="#FF9A03"/>
<g clip-path="url(#clip0_2090_15069)">
<path d="M11.9938 3.85453C11.4423 3.85453 10.8912 3.85882 10.3397 3.85346C10.0168 3.85025 9.81025 3.57632 9.91351 3.29168C9.98146 3.10514 10.1232 3.00222 10.3212 3.00168C11.437 3.00007 12.5528 2.99846 13.6685 3.00275C13.9209 3.00382 14.0984 3.19144 14.0979 3.42998C14.0979 3.66853 13.9225 3.85025 13.6675 3.85293C13.1096 3.85829 12.5517 3.85453 11.9938 3.85507V3.85453Z" fill="white"/>
<path d="M12.0196 4.71883C7.61243 4.69953 4.02808 8.33072 4.00015 12.8426C3.97276 17.3069 7.58451 20.9922 11.9944 20.9997C16.4026 21.0067 19.9943 17.3535 19.9996 12.8582C20.0049 8.3736 16.44 4.73812 12.0196 4.71883ZM12.0117 20.1367C8.06548 20.1511 4.86622 16.9107 4.84725 12.8796C4.82829 8.85498 8.01543 5.58937 11.9822 5.569C15.928 5.54863 19.1488 8.81156 19.1604 12.84C19.1715 16.8657 15.9812 20.1222 12.0117 20.1372V20.1367Z" fill="white"/>
<path d="M18.3224 12.8432C18.3003 16.0069 16.0925 18.655 13.0507 19.1927C9.77611 19.7716 6.55314 17.5642 5.84249 14.2562C5.49375 12.6331 5.73766 11.1016 6.5326 9.65637C6.65587 9.43231 6.8118 9.34439 7.00672 9.37709C7.31226 9.42855 7.44133 9.75554 7.27065 10.0648C6.98986 10.5741 6.78388 11.1101 6.6585 11.681C6.04004 14.4953 7.73265 17.4007 10.4546 18.1919C13.5886 19.1026 16.7362 17.1536 17.3784 13.904C17.9326 11.101 16.2062 8.26479 13.4711 7.49449C12.0292 7.0887 10.6527 7.27256 9.3415 7.99409C9.00593 8.17849 8.76149 8.1474 8.63032 7.89492C8.50231 7.64833 8.60398 7.43123 8.93428 7.24362C12.6904 5.11497 17.4158 7.36208 18.2081 11.6542C18.2824 12.0557 18.3119 12.4615 18.3219 12.8426L18.3224 12.8432Z" fill="white"/>
<path d="M11.5853 10.9139C11.5853 10.2991 11.5842 9.68478 11.5853 9.06993C11.5864 8.75473 11.7391 8.57247 11.9983 8.57033C12.2633 8.56819 12.4224 8.75688 12.4229 9.08011C12.4234 10.2224 12.425 11.3653 12.4203 12.5076C12.4203 12.6314 12.4556 12.7156 12.542 12.8024C13.2742 13.5406 14.0017 14.2836 14.7308 15.026C14.7772 15.0732 14.8257 15.1193 14.8646 15.1723C14.9895 15.3417 14.9747 15.5722 14.8341 15.7223C14.6966 15.8692 14.4616 15.896 14.2941 15.7786C14.2409 15.7411 14.1945 15.6918 14.1482 15.6446C13.3633 14.8464 12.581 14.0455 11.7918 13.2517C11.6454 13.1048 11.579 12.9477 11.5821 12.7381C11.5911 12.1302 11.5853 11.5224 11.5853 10.9139Z" fill="white"/>
<path d="M8.24913 8.60439C8.25282 8.84508 8.06369 9.04449 7.8319 9.04341C7.60801 9.04234 7.41889 8.85151 7.41415 8.62208C7.40941 8.38408 7.60222 8.18306 7.83401 8.18359C8.06001 8.18467 8.24544 8.37228 8.24913 8.60439Z" fill="white"/>
</g>
<defs>
<clipPath id="clip0_2090_15069">
<rect width="16" height="18" fill="white" transform="translate(4 3)"/>
</clipPath>
</defs>
</svg>
